<?xml version="1.0" standalone="no"?><!DOCTYPE svg PUBLIC "-//W3C//DTD SVG 1.1//EN" "http://www.w3.org/Graphics/SVG/1.1/DTD/svg11.dtd"><svg t="1528963891442" class="icon" style="" viewBox="0 0 1024 1024" version="1.1" xmlns="http://www.w3.org/2000/svg" p-id="3047" xmlns:xlink="http://www.w3.org/1999/xlink" width="200" height="200"><defs><style type="text/css"></style></defs><path d="M575.456752 909.554458c0 6.78145-5.497201 12.279674-12.279674 12.279674L454.694341 921.834132c-6.78145 0-12.279674-5.498224-12.279674-12.279674l0-780.782629c0-6.78145 5.498224-12.279674 12.279674-12.279674L563.177078 116.492154c6.782473 0 12.279674 5.498224 12.279674 12.279674L575.456752 909.554458z" p-id="3048"></path><path d="M899.327024 452.642101c6.78145 0 12.279674 5.497201 12.279674 12.279674l0 108.482737c0 6.78145-5.498224 12.279674-12.279674 12.279674l-780.782629 0c-6.78145 0-12.279674-5.498224-12.279674-12.279674L106.264721 464.921775c0-6.782473 5.498224-12.279674 12.279674-12.279674L899.327024 452.642101z" p-id="3049"></path></svg>