<?xml version="1.0" standalone="no"?><!DOCTYPE svg PUBLIC "-//W3C//DTD SVG 1.1//EN" "http://www.w3.org/Graphics/SVG/1.1/DTD/svg11.dtd"><svg t="1525676308043" class="icon" style="" viewBox="0 0 1024 1024" version="1.1" xmlns="http://www.w3.org/2000/svg" p-id="2978" xmlns:xlink="http://www.w3.org/1999/xlink" width="200" height="200"><defs><style type="text/css"></style></defs><path d="M954 725.9v-50h-81.8c-4.2-29.6-15.9-56.9-33.1-79.8l57.8-57.8-35.4-35.4-57.8 57.8c-22.9-17.2-50.2-28.8-79.8-33.1v-81.8h-50v81.8c-29.6 4.2-56.9 15.9-79.8 33.1l-57.8-57.8-35.3 35.3 57.8 57.8c-17.2 22.9-28.8 50.2-33.1 79.8H444v50h81.8c4.2 29.6 15.9 56.9 33.1 79.8L501 863.5l35.4 35.4 57.8-57.8c22.9 17.2 50.2 28.8 79.8 33.1V956h50v-81.8c29.6-4.2 56.9-15.9 79.8-33.1l57.8 57.8 35.4-35.4-57.8-57.8c17.2-22.9 28.8-50.2 33.1-79.8H954z m-131.3-7.1c-2.9 20.6-11.1 40.2-23.6 56.9l-10.8 14.5-14.5 10.8c-16.7 12.5-36.3 20.6-56.9 23.6l-17.9 2.6-17.9-2.6c-20.6-2.9-40.2-11.1-56.9-23.6l-14.5-10.8-10.8-14.5c-12.5-16.7-20.6-36.3-23.6-56.9l-2.6-17.9 2.6-17.9c2.9-20.6 11.1-40.2 23.6-56.9l10.8-14.5 14.5-10.8c16.7-12.5 36.3-20.6 56.9-23.6l17.9-2.6 17.9 2.6c20.6 2.9 40.2 11.1 56.9 23.6l14.5 10.8 10.8 14.5c12.5 16.7 20.6 36.3 23.6 56.9l2.6 17.9-2.6 17.9zM474.1 148.2c-23.9 0.9-47 4.5-69.2 10.7C421.7 116.2 463.3 86 512 86c48.4 0 89.9 29.9 106.8 72.3-22.1-6-45.3-9.5-69.1-10.2C539 140.5 526 136 511.9 136c-14 0-27.1 4.5-37.8 12.2zM450 862H82v-50h103V468c0-165 135-300 300-300h56c145.2 0 267.1 104.5 294.3 242h-51.2c-3.2-13.3-7.5-26.3-12.8-38.9-12.6-29.8-30.7-56.5-53.8-79.6s-49.8-41.1-79.6-53.8C607.2 224.6 574.6 218 541 218h-56c-33.6 0-66.2 6.6-96.9 19.7-29.8 12.6-56.5 30.7-79.6 53.8-23 23-41.1 49.8-53.8 79.6-13.1 30.7-19.7 63.3-19.7 96.9v344h215v50z m0 76h-68v-50h68v50z" fill="" p-id="2979"></path></svg>