<?xml version="1.0" standalone="no"?><!DOCTYPE svg PUBLIC "-//W3C//DTD SVG 1.1//EN" "http://www.w3.org/Graphics/SVG/1.1/DTD/svg11.dtd"><svg t="1535076652868" class="icon" style="" viewBox="0 0 1024 1024" version="1.1" xmlns="http://www.w3.org/2000/svg" p-id="1040" xmlns:xlink="http://www.w3.org/1999/xlink" width="200" height="200"><defs><style type="text/css"></style></defs><path d="M512 313.6c-140.8 0-249.6 115.2-249.6 249.6v243.2h502.4v-243.2c-3.2-137.6-118.4-249.6-252.8-249.6z m-6.4-48c-19.2 0-38.4-19.2-38.4-38.4v-89.6c0-19.2 19.2-38.4 38.4-38.4s38.4 19.2 38.4 38.4v89.6c3.2 19.2-12.8 38.4-38.4 38.4z m166.4 54.4c-16-16-16-38.4 0-54.4l60.8-64c16-16 38.4-16 54.4 0s16 38.4 0 54.4l-54.4 64c-16 16-41.6 16-60.8 0z m-329.6 0c16-16 16-38.4 0-54.4l-60.8-64c-16-16-38.4-16-54.4 0s-16 38.4 0 54.4l60.8 64c12.8 16 38.4 16 54.4 0z m-76.8 140.8c6.4-19.2-9.6-44.8-28.8-51.2l-89.6-19.2c-19.2-6.4-44.8 9.6-51.2 28.8 0 19.2 9.6 38.4 28.8 44.8l89.6 25.6c22.4 6.4 48-9.6 51.2-28.8z m486.4 0c-6.4-19.2 9.6-44.8 28.8-51.2l89.6-19.2c19.2-6.4 44.8 9.6 51.2 28.8 6.4 19.2-9.6 44.8-28.8 51.2l-89.6 19.2c-22.4 6.4-44.8-9.6-51.2-28.8z m32 499.2h-540.8c-28.8 0-51.2-22.4-51.2-51.2s22.4-51.2 51.2-51.2h540.8c28.8 0 51.2 22.4 51.2 51.2s-22.4 51.2-51.2 51.2z" p-id="1041"></path><path d="M604.777551 633.152025a89.6 54.4 76.001 1 0-43.349369-173.877751 89.6 54.4 76.001 1 0 43.349369 173.877751Z" p-id="1042"></path></svg>