<?xml version="1.0" standalone="no"?><!DOCTYPE svg PUBLIC "-//W3C//DTD SVG 1.1//EN" "http://www.w3.org/Graphics/SVG/1.1/DTD/svg11.dtd"><svg class="icon" width="200px" height="200.00px" viewBox="0 0 1024 1024" version="1.1" xmlns="http://www.w3.org/2000/svg"><path fill="#333333" d="M818.231 55.853h-225.773c-8.288-32.088-37.476-55.853-72.112-55.853-34.642 0-63.824 23.765-72.117 55.853h-225.778c-51.329 0-93.089 41.755-93.089 93.074v781.963c0 51.334 41.765 93.109 93.089 93.109h595.78c51.324 0 93.089-41.78 93.089-93.109v-781.963c0.005-51.319-41.765-93.074-93.089-93.074v0zM520.346 37.236c20.528 0 37.236 16.698 37.236 37.256 0 20.512-16.708 37.2-37.236 37.2-20.533 0-37.241-16.688-37.241-37.2 0-20.558 16.708-37.256 37.241-37.256v0zM874.084 930.891c0 30.817-25.052 55.853-55.853 55.853h-595.78c-30.791 0-55.853-25.031-55.853-55.853v-781.963c0-30.766 25.062-55.838 55.853-55.838h225.773c1.706 6.597 4.315 12.837 7.654 18.602h-84.485c-10.274 0-18.618 8.344-18.618 18.638 0 10.274 8.349 18.597 18.618 18.597h297.895c10.294 0 18.613-8.323 18.613-18.597 0-10.3-8.318-18.638-18.613-18.638h-84.48c3.334-5.76 5.954-12 7.66-18.602h225.768c30.796 0 55.853 25.067 55.853 55.838v781.963h-0.005zM669.288 204.781c10.294 0 18.613-8.328 18.613-18.597 0-10.294-8.318-18.618-18.613-18.618h-297.895c-10.274 0-18.618 8.323-18.618 18.618 0 10.269 8.349 18.597 18.618 18.597h297.895zM793.409 335.085l-403.377 0.082c-10.289 0-18.613 8.313-18.613 18.602 0 10.294 8.323 18.623 18.613 18.623l403.377-0.082c10.305 0 18.618-8.323 18.618-18.602 0-10.3-8.334-18.623-18.618-18.623v0zM281.96 316.508h-7.312c-18.505 0-33.574 15.079-33.574 33.574v7.312c0 18.526 15.069 33.585 33.574 33.585h7.312c18.511 0 33.585-15.059 33.585-33.585v-7.312c0-18.495-15.079-33.574-33.585-33.574v0zM281.96 465.445h-7.312c-18.505 0-33.574 15.084-33.574 33.59v7.297c0 18.516 15.069 33.585 33.574 33.585h7.312c18.511 0 33.585-15.069 33.585-33.585v-7.297c0-18.505-15.079-33.59-33.585-33.59v0zM281.96 614.378h-7.312c-18.505 0-33.574 15.1-33.574 33.605v7.338c0 18.5 15.069 33.559 33.574 33.559h7.312c18.511 0 33.585-15.059 33.585-33.559v-7.338c0-18.505-15.079-33.605-33.585-33.605v0zM281.96 763.34h-7.312c-18.505 0-33.574 15.089-33.574 33.6v7.302c0 18.511 15.069 33.579 33.574 33.579h7.312c18.511 0 33.585-15.069 33.585-33.579v-7.302c0-18.511-15.079-33.6-33.585-33.6v0zM793.409 484.027l-403.377 0.082c-10.289 0-18.613 8.328-18.613 18.602 0 10.3 8.323 18.633 18.613 18.633l403.377-0.082c10.305 0 18.618-8.323 18.618-18.623 0-10.294-8.334-18.613-18.618-18.613v0zM793.409 632.965l-403.393 0.071c-10.274 0-18.618 8.369-18.618 18.638 0 10.279 8.344 18.618 18.618 18.618l403.393-0.082c10.305 0 18.618-8.349 18.618-18.613 0-10.269-8.334-18.633-18.618-18.633v0zM793.409 781.938l-403.393 0.071c-10.274 0-18.623 8.328-18.623 18.613s8.349 18.613 18.623 18.613l403.393-0.082c10.305 0 18.618-8.349 18.618-18.602 0-10.284-8.334-18.613-18.618-18.613v0zM793.409 781.938z" /></svg>