<?xml version="1.0" standalone="no"?><!DOCTYPE svg PUBLIC "-//W3C//DTD SVG 1.1//EN" "http://www.w3.org/Graphics/SVG/1.1/DTD/svg11.dtd"><svg t="1524036045285" class="icon" style="" viewBox="0 0 1025 1024" version="1.1" xmlns="http://www.w3.org/2000/svg" p-id="3281" xmlns:xlink="http://www.w3.org/1999/xlink" width="200.1953125" height="200"><defs><style type="text/css"></style></defs><path d="M302.857143 921.428571c0 28.571429-15.714286 51.428571-35.714286 51.428571L35.714286 972.857143c-20 0-35.714286-22.857143-35.714286-51.428571l0 0c0-28.571429 15.714286-51.428571 35.714286-51.428571l231.428571 0C287.142857 870 302.857143 892.857143 302.857143 921.428571L302.857143 921.428571zM302.857143 720c0 28.571429-15.714286 51.428571-35.714286 51.428571L35.714286 771.428571c-20 0-35.714286-22.857143-35.714286-51.428571l0 0c0-28.571429 15.714286-51.428571 35.714286-51.428571l231.428571 0C287.142857 668.571429 302.857143 691.428571 302.857143 720L302.857143 720zM302.857143 921.428571c0 28.571429-15.714286 51.428571-35.714286 51.428571L35.714286 972.857143c-20 0-35.714286-22.857143-35.714286-51.428571l0 0c0-28.571429 15.714286-51.428571 35.714286-51.428571l231.428571 0C287.142857 870 302.857143 892.857143 302.857143 921.428571L302.857143 921.428571zM302.857143 720c0 28.571429-15.714286 51.428571-35.714286 51.428571L35.714286 771.428571c-20 0-35.714286-22.857143-35.714286-51.428571l0 0c0-28.571429 15.714286-51.428571 35.714286-51.428571l231.428571 0C287.142857 668.571429 302.857143 691.428571 302.857143 720L302.857143 720zM302.857143 518.571429c0 28.571429-15.714286 51.428571-35.714286 51.428571L35.714286 570C15.714286 571.428571 0 547.142857 0 518.571429l0 0c0-28.571429 15.714286-51.428571 35.714286-51.428571l231.428571 0C287.142857 467.142857 302.857143 490 302.857143 518.571429L302.857143 518.571429zM302.857143 321.428571c0 28.571429-15.714286 51.428571-35.714286 51.428571l-231.428571 0c-20 0-35.714286-22.857143-35.714286-51.428571l0 0c0-28.571429 15.714286-51.428571 35.714286-51.428571l231.428571 0C287.142857 268.571429 302.857143 292.857143 302.857143 321.428571L302.857143 321.428571zM302.857143 921.428571c0 28.571429-15.714286 51.428571-35.714286 51.428571L35.714286 972.857143c-20 0-35.714286-22.857143-35.714286-51.428571l0 0c0-28.571429 15.714286-51.428571 35.714286-51.428571l231.428571 0C287.142857 870 302.857143 892.857143 302.857143 921.428571L302.857143 921.428571zM302.857143 720c0 28.571429-15.714286 51.428571-35.714286 51.428571L35.714286 771.428571c-20 0-35.714286-22.857143-35.714286-51.428571l0 0c0-28.571429 15.714286-51.428571 35.714286-51.428571l231.428571 0C287.142857 668.571429 302.857143 691.428571 302.857143 720L302.857143 720zM302.857143 720c0 28.571429-15.714286 51.428571-35.714286 51.428571L35.714286 771.428571c-20 0-35.714286-22.857143-35.714286-51.428571l0 0c0-28.571429 15.714286-51.428571 35.714286-51.428571l231.428571 0C287.142857 668.571429 302.857143 691.428571 302.857143 720L302.857143 720zM657.142857 921.428571c0 28.571429-15.714286 51.428571-35.714286 51.428571L388.571429 972.857143c-20 0-35.714286-22.857143-35.714286-51.428571l0 0c0-28.571429 15.714286-51.428571 35.714286-51.428571l231.428571 0C640 870 657.142857 892.857143 657.142857 921.428571L657.142857 921.428571zM657.142857 720c0 28.571429-15.714286 51.428571-35.714286 51.428571L388.571429 771.428571c-20 0-35.714286-22.857143-35.714286-51.428571l0 0c0-28.571429 15.714286-51.428571 35.714286-51.428571l231.428571 0C640 668.571429 657.142857 691.428571 657.142857 720L657.142857 720zM657.142857 921.428571c0 28.571429-15.714286 51.428571-35.714286 51.428571L388.571429 972.857143c-20 0-35.714286-22.857143-35.714286-51.428571l0 0c0-28.571429 15.714286-51.428571 35.714286-51.428571l231.428571 0C640 870 657.142857 892.857143 657.142857 921.428571L657.142857 921.428571zM657.142857 720c0 28.571429-15.714286 51.428571-35.714286 51.428571L388.571429 771.428571c-20 0-35.714286-22.857143-35.714286-51.428571l0 0c0-28.571429 15.714286-51.428571 35.714286-51.428571l231.428571 0C640 668.571429 657.142857 691.428571 657.142857 720L657.142857 720zM657.142857 518.571429c0 28.571429-15.714286 51.428571-35.714286 51.428571L388.571429 570c-20 0-35.714286-22.857143-35.714286-51.428571l0 0c0-28.571429 15.714286-51.428571 35.714286-51.428571l231.428571 0C640 467.142857 657.142857 490 657.142857 518.571429L657.142857 518.571429zM657.142857 921.428571c0 28.571429-15.714286 51.428571-35.714286 51.428571L388.571429 972.857143c-20 0-35.714286-22.857143-35.714286-51.428571l0 0c0-28.571429 15.714286-51.428571 35.714286-51.428571l231.428571 0C640 870 657.142857 892.857143 657.142857 921.428571L657.142857 921.428571zM657.142857 720c0 28.571429-15.714286 51.428571-35.714286 51.428571L388.571429 771.428571c-20 0-35.714286-22.857143-35.714286-51.428571l0 0c0-28.571429 15.714286-51.428571 35.714286-51.428571l231.428571 0C640 668.571429 657.142857 691.428571 657.142857 720L657.142857 720zM657.142857 518.571429c0 28.571429-15.714286 51.428571-35.714286 51.428571L388.571429 570c-20 0-35.714286-22.857143-35.714286-51.428571l0 0c0-28.571429 15.714286-51.428571 35.714286-51.428571l231.428571 0C640 467.142857 657.142857 490 657.142857 518.571429L657.142857 518.571429zM657.142857 317.142857c0 28.571429-15.714286 51.428571-35.714286 51.428571l-231.428571 0c-20 0-35.714286-22.857143-35.714286-51.428571l0 0c0-28.571429 15.714286-51.428571 35.714286-51.428571l231.428571 0C640 265.714286 657.142857 288.571429 657.142857 317.142857L657.142857 317.142857zM657.142857 720c0 28.571429-15.714286 51.428571-35.714286 51.428571L388.571429 771.428571c-20 0-35.714286-22.857143-35.714286-51.428571l0 0c0-28.571429 15.714286-51.428571 35.714286-51.428571l231.428571 0C640 668.571429 657.142857 691.428571 657.142857 720L657.142857 720zM657.142857 518.571429c0 28.571429-15.714286 51.428571-35.714286 51.428571L388.571429 570c-20 0-35.714286-22.857143-35.714286-51.428571l0 0c0-28.571429 15.714286-51.428571 35.714286-51.428571l231.428571 0C640 467.142857 657.142857 490 657.142857 518.571429L657.142857 518.571429zM657.142857 317.142857c0 28.571429-15.714286 51.428571-35.714286 51.428571l-231.428571 0c-20 0-35.714286-22.857143-35.714286-51.428571l0 0c0-28.571429 15.714286-51.428571 35.714286-51.428571l231.428571 0C640 265.714286 657.142857 288.571429 657.142857 317.142857L657.142857 317.142857zM657.142857 102.857143c0 28.571429-15.714286 51.428571-35.714286 51.428571L388.571429 154.285714c-20 0-35.714286-22.857143-35.714286-51.428571l0 0c0-28.571429 15.714286-51.428571 35.714286-51.428571l231.428571 0C640 50 657.142857 74.285714 657.142857 102.857143L657.142857 102.857143zM1024.285714 921.428571c0 28.571429-15.714286 51.428571-35.714286 51.428571L757.142857 972.857143c-20 0-35.714286-22.857143-35.714286-51.428571l0 0c0-28.571429 15.714286-51.428571 35.714286-51.428571l231.428571 0C1008.571429 870 1024.285714 892.857143 1024.285714 921.428571L1024.285714 921.428571zM1024.285714 720c0 28.571429-15.714286 51.428571-35.714286 51.428571L757.142857 771.428571c-20 0-35.714286-22.857143-35.714286-51.428571l0 0c0-28.571429 15.714286-51.428571 35.714286-51.428571l231.428571 0C1008.571429 668.571429 1024.285714 691.428571 1024.285714 720L1024.285714 720zM1024.285714 921.428571c0 28.571429-15.714286 51.428571-35.714286 51.428571L757.142857 972.857143c-20 0-35.714286-22.857143-35.714286-51.428571l0 0c0-28.571429 15.714286-51.428571 35.714286-51.428571l231.428571 0C1008.571429 870 1024.285714 892.857143 1024.285714 921.428571L1024.285714 921.428571zM1024.285714 720c0 28.571429-15.714286 51.428571-35.714286 51.428571L757.142857 771.428571c-20 0-35.714286-22.857143-35.714286-51.428571l0 0c0-28.571429 15.714286-51.428571 35.714286-51.428571l231.428571 0C1008.571429 668.571429 1024.285714 691.428571 1024.285714 720L1024.285714 720zM1024.285714 921.428571c0 28.571429-15.714286 51.428571-35.714286 51.428571L757.142857 972.857143c-20 0-35.714286-22.857143-35.714286-51.428571l0 0c0-28.571429 15.714286-51.428571 35.714286-51.428571l231.428571 0C1008.571429 870 1024.285714 892.857143 1024.285714 921.428571L1024.285714 921.428571zM1024.285714 720c0 28.571429-15.714286 51.428571-35.714286 51.428571L757.142857 771.428571c-20 0-35.714286-22.857143-35.714286-51.428571l0 0c0-28.571429 15.714286-51.428571 35.714286-51.428571l231.428571 0C1008.571429 668.571429 1024.285714 691.428571 1024.285714 720L1024.285714 720zM1024.285714 720c0 28.571429-15.714286 51.428571-35.714286 51.428571L757.142857 771.428571c-20 0-35.714286-22.857143-35.714286-51.428571l0 0c0-28.571429 15.714286-51.428571 35.714286-51.428571l231.428571 0C1008.571429 668.571429 1024.285714 691.428571 1024.285714 720L1024.285714 720z" p-id="3282"></path></svg>