<?xml version="1.0" standalone="no"?><!DOCTYPE svg PUBLIC "-//W3C//DTD SVG 1.1//EN" "http://www.w3.org/Graphics/SVG/1.1/DTD/svg11.dtd"><svg t="1531299906873" class="icon" style="" viewBox="0 0 1024 1024" version="1.1" xmlns="http://www.w3.org/2000/svg" p-id="1240" xmlns:xlink="http://www.w3.org/1999/xlink" width="200" height="200"><defs><style type="text/css"></style></defs><path d="M286.776772 113.64522h82.174237c31.697246 0 57.408834-25.444188 57.408834-56.853464 0-31.409276-25.711588-56.853464-57.408834-56.853464H286.776772c-31.717815 0-57.429404 25.444188-57.429403 56.853464 0 31.409276 25.732158 56.853464 57.429403 56.853464zM862.572365 367.778559h0.267401l-0.534801-0.28797a60.06227 60.06227 0 0 0-33.363357-19.273406L523.035415 171.486009H229.347369L159.144448 370.28801a59.033807 59.033807 0 0 0-12.917502 36.592732v557.324388c0 33.054818 27.048591 59.836008 60.432517 59.836009h610.475383c33.383926 0 60.453086-26.78119 60.453087-59.836009l-0.020569-557.324388c0-15.036137-5.759396-28.591286-14.994999-39.102183z m-117.368258 532.373863a46.342567 46.342567 0 0 1-46.568829 46.095735H325.159031a46.342567 46.342567 0 0 1-40.686017-24.168893c-0.164554-4.854348-0.390816-9.667557-0.390816-14.542474 0-203.759195 71.766185-348.505152 250.122331-423.089328 2.756282 2.571159 210.999578 118.129321 210.999578 118.129321v297.575639z m30.010566-416.856839a34.12442 34.12442 0 0 1-46.424844 12.156439l-197.259305-113.624651a33.466203 33.466203 0 0 1-12.279855-45.97232 34.144989 34.144989 0 0 1 46.424844-12.156439l197.279875 113.624651a33.466203 33.466203 0 0 1 12.259285 45.97232z" fill="#1296db" p-id="1241"></path></svg>