<?xml version="1.0" standalone="no"?><!DOCTYPE svg PUBLIC "-//W3C//DTD SVG 1.1//EN" "http://www.w3.org/Graphics/SVG/1.1/DTD/svg11.dtd"><svg class="icon" width="200px" height="200.00px" viewBox="0 0 1024 1024" version="1.1" xmlns="http://www.w3.org/2000/svg"><path fill="#112079" d="M715.435 177.571l-174.58-101.73c-8.122-4.732-18.83-7.1-29.537-7.1h-0.001c-10.708 0-21.415 2.368-29.538 7.1l-174.578 101.73c-16.246 9.467-29.538 32.597-29.538 51.4v203.933c0 18.803 13.292 41.933 29.54 51.4L481.78 586.031c8.123 4.734 18.83 7.1 29.538 7.1h0.001c10.708 0 21.415-2.367 29.538-7.1l174.578-101.729c16.246-9.466 29.538-32.596 29.538-51.4V228.972c-0.001-18.803-13.293-41.933-29.538-51.4z m-345.461 27.822l111.805-65.15c8.123-4.734 18.831-7.1 29.538-7.1 10.708 0 21.416 2.366 29.539 7.1l111.805 65.15c6.345 4.477 5.916 11.123-1.268 15.211l-19.004 10.81-0.083 0.033-1.078 0.629-1.677 0.953 0.031 0.004-91.27 53.186c-7.424 4.326-17.21 6.489-26.995 6.489s-19.57-2.163-26.994-6.49l-91.272-53.185c0.01 0 0.022-0.002 0.033-0.004l-1.676-0.953-1.079-0.629-0.084-0.032-19.003-10.81c-7.185-4.09-7.613-10.735-1.268-15.212z m116.102 281.244l-0.367 21.675c-0.132 7.682-5.001 11.307-11.285 9.035L362.46 452.104c-16.246-9.467-29.54-32.597-29.54-51.4V287.382l0.25-14.715c0.136-7.852 5.221-11.45 11.706-8.86l21.093 12.277 4.991 2.961c-0.008-0.023-0.018-0.047-0.025-0.07l84.142 48.976 18.567 11.257c6.579 3.99 11.998 13.323 12.432 21.158v126.271z m203.638-85.933c0 18.803-13.293 41.933-29.539 51.4l-111.964 65.243c-6.285 2.272-11.153-1.352-11.285-9.035l-0.366-21.675V360.365c0.434-7.835 5.853-17.168 12.432-21.158l18.566-11.257 84.143-48.976c-0.008 0.023-0.018 0.047-0.025 0.07l4.992-2.961 21.092-12.278c6.485-2.589 11.571 1.01 11.705 8.861l0.25 14.715v113.323z"  /><path fill="#112079" d="M508.727 537.776l-174.58-101.73c-8.122-4.733-18.829-7.1-29.537-7.1-10.709 0-21.416 2.367-29.539 7.1l-174.578 101.73c-16.246 9.466-29.537 32.596-29.537 51.4v203.932c0 18.804 13.291 41.933 29.538 51.4l174.578 101.728c8.123 4.734 18.83 7.1 29.538 7.1h0.001c10.708 0 21.415-2.367 29.538-7.1l174.578-101.728c16.246-9.468 29.538-32.596 29.538-51.4V589.175c-0.001-18.804-13.293-41.933-29.538-51.399z m-345.461 27.82l111.805-65.15c8.123-4.733 18.831-7.1 29.538-7.1 10.708 0 21.416 2.367 29.539 7.1l111.805 65.15c6.345 4.478 5.916 11.123-1.268 15.212l-19.003 10.81-0.084 0.032-1.078 0.628-1.677 0.954 0.032 0.004-91.271 53.186c-7.424 4.326-17.209 6.488-26.995 6.488-9.785 0-19.57-2.162-26.994-6.488l-91.271-53.186c0.01 0 0.021-0.003 0.032-0.004l-1.676-0.954-1.078-0.628-0.084-0.032-19.004-10.81c-7.185-4.089-7.613-10.734-1.268-15.211z m116.102 281.245l-0.367 21.675c-0.132 7.683-5.001 11.306-11.285 9.035l-111.964-65.243c-16.246-9.467-29.539-32.597-29.539-51.4V647.586l0.25-14.715c0.135-7.852 5.22-11.45 11.705-8.86l21.093 12.276 4.991 2.962-0.025-0.07 84.142 48.975 18.567 11.257c6.579 3.99 11.998 13.324 12.432 21.16v126.27z m203.638-85.933c0 18.802-13.293 41.933-29.539 51.4L341.503 877.55c-6.285 2.271-11.153-1.352-11.285-9.035l-0.366-21.675V720.57c0.434-7.835 5.853-17.168 12.432-21.159l18.566-11.257 84.143-48.975c-0.008 0.022-0.018 0.047-0.025 0.07l4.993-2.962 21.09-12.277c6.487-2.589 11.572 1.009 11.706 8.86l0.25 14.716v113.323z"  /><path fill="#112079" d="M920.948 537.606L746.37 435.876c-8.123-4.733-18.83-7.1-29.537-7.1h-0.001c-10.708 0-21.415 2.367-29.538 7.1l-174.578 101.73c-16.246 9.466-29.539 32.597-29.539 51.4v203.932c0 18.804 13.292 41.934 29.539 51.4l174.578 101.728c8.123 4.734 18.83 7.1 29.538 7.1 10.708 0 21.415-2.367 29.538-7.1l174.578-101.728c16.246-9.467 29.538-32.596 29.538-51.4V589.005c0-18.803-13.292-41.933-29.537-51.399z m-345.46 27.82l111.805-65.15c8.123-4.733 18.83-7.1 29.538-7.1 10.707 0 21.415 2.367 29.538 7.1l111.806 65.15c6.344 4.478 5.915 11.123-1.268 15.212l-19.004 10.81-0.084 0.032-1.077 0.629-1.678 0.953 0.032 0.004-91.27 53.186c-7.425 4.326-17.21 6.488-26.995 6.488s-19.571-2.162-26.994-6.488l-91.272-53.186c0.011 0 0.022-0.003 0.033-0.004l-1.676-0.953-1.08-0.629-0.083-0.032-19.004-10.81c-7.184-4.089-7.612-10.734-1.268-15.211zM691.59 846.672l-0.368 21.675c-0.132 7.683-5 11.306-11.284 9.035l-111.964-65.243c-16.247-9.467-29.537-32.597-29.537-51.4V647.416l0.248-14.715c0.135-7.852 5.222-11.45 11.706-8.86l21.092 12.276 4.992 2.962a1.193 1.193 0 0 1-0.026-0.07l84.143 48.975 18.568 11.257c6.578 3.99 11.998 13.324 12.43 21.16v126.27z m203.638-85.933c0 18.802-13.293 41.933-29.54 51.4L753.726 877.38c-6.285 2.271-11.153-1.352-11.285-9.035l-0.366-21.675V720.4c0.433-7.835 5.853-17.168 12.432-21.159l18.566-11.257 84.143-48.975c-0.008 0.022-0.019 0.047-0.026 0.07l4.993-2.962 21.091-12.277c6.486-2.589 11.572 1.01 11.706 8.861l0.25 14.715v113.323z"  /></svg>