<?xml version="1.0" standalone="no"?><!DOCTYPE svg PUBLIC "-//W3C//DTD SVG 1.1//EN" "http://www.w3.org/Graphics/SVG/1.1/DTD/svg11.dtd"><svg t="1531191385558" class="icon" style="" viewBox="0 0 1024 1024" version="1.1" xmlns="http://www.w3.org/2000/svg" p-id="3658" xmlns:xlink="http://www.w3.org/1999/xlink" width="200" height="200"><defs><style type="text/css"></style></defs><path d="M512 453.2c-64.2 0-116.4 52.2-116.4 116.4S447.8 686 512 686s116.4-52.2 116.4-116.4c0.1-64.2-52.2-116.4-116.4-116.4z m332.7-170.1H710.3c0-64.3-52.1-116.5-116.5-116.5H432.5c-64.3 0-116.5 52.1-116.5 116.5H181.7c-64.3 0-116.5 52.1-116.5 116.5v340.5c0 64.3 52.1 116.5 116.5 116.5h663c64.3 0 116.5-52.1 116.5-116.5V399.6c0-64.3-52.2-116.5-116.5-116.5zM513.2 775.9c-113.6 0-206.1-92.4-206.1-206.1 0-113.6 92.4-206.1 206.1-206.1 113.6 0 206.1 92.4 206.1 206.1 0 113.7-92.5 206.1-206.1 206.1z m0 0" p-id="3659" fill="#8a8a8a"></path></svg>