<?xml version="1.0" standalone="no"?><!DOCTYPE svg PUBLIC "-//W3C//DTD SVG 1.1//EN" "http://www.w3.org/Graphics/SVG/1.1/DTD/svg11.dtd"><svg t="1532479775276" class="icon" style="" viewBox="0 0 1024 1024" version="1.1" xmlns="http://www.w3.org/2000/svg" p-id="2044" xmlns:xlink="http://www.w3.org/1999/xlink" width="200" height="200"><defs><style type="text/css"></style></defs><path d="M512 967.111111C260.636444 967.111111 56.888889 763.363556 56.888889 512S260.636444 56.888889 512 56.888889s455.111111 203.747556 455.111111 455.111111-203.747556 455.111111-455.111111 455.111111z m0-56.888889c219.932444 0 398.222222-178.289778 398.222222-398.222222S731.932444 113.777778 512 113.777778 113.777778 292.067556 113.777778 512s178.289778 398.222222 398.222222 398.222222z m264.334222-574.776889a28.444444 28.444444 0 0 1 40.220445 40.220445l-369.777778 369.777778a28.444444 28.444444 0 0 1-38.855111 1.308444l-227.555556-199.111111a28.444444 28.444444 0 0 1 37.489778-42.837333l207.502222 181.589333 350.976-350.947556z" p-id="2045"></path></svg>