<?xml version="1.0" standalone="no"?><!DOCTYPE svg PUBLIC "-//W3C//DTD SVG 1.1//EN" "http://www.w3.org/Graphics/SVG/1.1/DTD/svg11.dtd"><svg t="1528943218182" class="icon" style="" viewBox="0 0 1024 1024" version="1.1" xmlns="http://www.w3.org/2000/svg" p-id="5749" xmlns:xlink="http://www.w3.org/1999/xlink" width="200" height="200"><defs><style type="text/css"></style></defs><path d="M841.189929 65.813938 186.782545 65.813938c-65.708538 0-118.981858 53.246715-118.981858 118.981858l0 654.407384c0 65.677838 53.274344 118.982882 118.981858 118.982882l654.407384 0c65.709561 0 118.982882-53.306066 118.982882-118.982882L960.172811 184.795796C960.173834 119.05963 906.89949 65.813938 841.189929 65.813938M824.108902 404.374794 465.882148 762.631224c-23.121604 23.091928-60.535725 23.091928-83.60207 0-5.228071-5.228071-8.888438-11.302417-11.792581-17.660218-5.40408-2.788509-10.865465-5.78168-15.454994-10.314926L231.809041 611.403964c-23.180955-23.210631-23.180955-60.857043 0-84.124979 23.296589-23.208585 60.944024-23.208585 84.123956 0L424.982646 636.386962l315.640844-315.585585c23.00904-23.035646 60.422138-23.035646 83.485413 0C847.231529 343.866698 847.231529 381.279796 824.108902 404.374794" p-id="5750"></path></svg>