<?xml version="1.0" standalone="no"?><!DOCTYPE svg PUBLIC "-//W3C//DTD SVG 1.1//EN" "http://www.w3.org/Graphics/SVG/1.1/DTD/svg11.dtd"><svg t="1534993770056" class="icon" style="" viewBox="0 0 1024 1024" version="1.1" xmlns="http://www.w3.org/2000/svg" p-id="2957" xmlns:xlink="http://www.w3.org/1999/xlink" width="300" height="300"><defs><style type="text/css"></style></defs><path d="M522.24 276.48c153.6 0 276.48 122.88 276.48 276.48s-122.88 276.48-276.48 276.48-276.48-122.88-276.48-276.48 126.293333-276.48 276.48-276.48z" fill="#EEEEEE" p-id="2958"></path><path d="M539.306667 552.96l116.053333-116.053333c3.413333-3.413333 3.413333-13.653333 0-17.066667-3.413333-3.413333-13.653333-3.413333-17.066667 0l-116.053333 116.053333-116.053333-116.053333c-3.413333-3.413333-13.653333-3.413333-17.066667 0-3.413333 3.413333-3.413333 13.653333 0 17.066667l116.053333 116.053333-116.053333 116.053333c-3.413333 3.413333-3.413333 13.653333 0 17.066667 3.413333 3.413333 13.653333 3.413333 17.066667 0l116.053333-116.053333 116.053333 116.053333c3.413333 3.413333 13.653333 3.413333 17.066667 0 3.413333-3.413333 3.413333-13.653333 0-17.066667l-116.053333-116.053333z" fill="#595656" p-id="2959"></path></svg>