<?xml version="1.0" standalone="no"?><!DOCTYPE svg PUBLIC "-//W3C//DTD SVG 1.1//EN" "http://www.w3.org/Graphics/SVG/1.1/DTD/svg11.dtd"><svg t="1531289567738" class="icon" style="" viewBox="0 0 1024 1024" version="1.1" xmlns="http://www.w3.org/2000/svg" p-id="1958" xmlns:xlink="http://www.w3.org/1999/xlink" width="200" height="200"><defs><style type="text/css"></style></defs><path d="M916.13866667 512c0-50.97244445 25.48622222-98.304 76.45866666-145.63555555 10.92266667-10.92266667 14.56355555-29.12711111 7.28177778-43.69066667-58.25422222-94.66311111-69.17688889-116.50844445-69.17688889-120.14933333 0-3.64088889-3.64088889-7.28177778-7.28177777-10.92266667-7.28177778-10.92266667-21.84533333-14.56355555-36.4088889-10.92266667 0 0-105.58577778 29.12711111-182.04444444-18.20444444-40.04977778-25.48622222-65.536-69.17688889-80.09955556-127.43111112-3.64088889-21.84533333-18.20444445-32.768-36.40888888-32.768H439.18222222c-18.20444445 0-32.768 10.92266667-36.40888889 29.12711112 0 0-18.20444445 91.02222222-83.74044444 134.71288888-43.69066667 29.12711111-101.94488889 32.768-174.76266667 10.92266667-14.56355555-3.64088889-32.768 3.64088889-40.04977777 18.20444445-69.17688889 116.50844445-76.45866667 127.43111111-80.09955556 131.072-3.64088889 7.28177778-7.28177778 14.56355555-3.64088889 21.84533333 0 10.92266667 7.28177778 18.20444445 14.56355555 25.48622222 0 0 72.81777778 50.97244445 76.45866667 127.43111111 3.64088889 50.97244445-21.84533333 105.58577778-80.09955555 160.19911112-10.92266667 10.92266667-14.56355555 29.12711111-7.28177778 43.69066666l80.09955556 131.072c10.92266667 14.56355555 29.12711111 21.84533333 43.69066666 14.56355556 0 0 80.09955555-32.768 152.91733334 0 47.33155555 21.84533333 83.74044445 72.81777778 101.94488888 145.63555555 3.64088889 14.56355555 18.20444445 25.48622222 32.768 25.48622223h152.91733334c18.20444445 0 32.768-10.92266667 36.40888888-29.12711112 0 0 18.20444445-91.02222222 91.02222223-134.71288888 43.69066667-25.48622222 101.94488889-29.12711111 167.48088889-10.92266667 14.56355555 3.64088889 32.768-3.64088889 40.04977778-14.56355556 61.89511111-105.58577778 72.81777778-123.79022222 72.81777777-123.79022222 3.64088889-7.28177778 7.28177778-14.56355555 7.28177778-21.84533333 0-10.92266667-3.64088889-18.20444445-10.92266667-25.48622222-3.64088889-3.64088889-72.81777778-65.536-76.45866666-149.27644445z m14.56355555-291.27111111c0 3.64088889 0 3.64088889-3.64088889 7.28177778 0 0 3.64088889-3.64088889 3.64088889-7.28177778z m0-7.28177778v0zM876.08888889 770.50311111c-76.45866667-18.20444445-141.99466667-7.28177778-200.24888889 25.48622222-69.17688889 43.69066667-98.304 116.50844445-112.86755555 152.91733334h-98.304c-29.12711111-80.09955555-72.81777778-134.71288889-134.7128889-163.84-69.17688889-32.768-141.99466667-21.84533333-178.40355555-10.92266667l-50.97244445-83.74044445c58.25422222-61.89511111 87.38133333-127.43111111 83.74044445-196.608-7.28177778-72.81777778-50.97244445-127.43111111-80.09955555-156.55822222 7.28177778-18.20444445 21.84533333-43.69066667 47.33155555-83.74044444 80.09955555 18.20444445 149.27644445 7.28177778 207.53066667-29.12711111C424.61866667 184.32 453.74577778 111.50222222 468.30933333 75.09333333h94.66311112c18.20444445 65.536 54.61333333 116.50844445 105.58577777 145.63555556 76.45866667 47.33155555 167.48088889 40.04977778 211.17155556 32.768 10.92266667 18.20444445 25.48622222 43.69066667 47.33155555 80.09955556-50.97244445 54.61333333-80.09955555 116.50844445-76.45866666 178.40355555 0 80.09955555 47.33155555 145.63555555 76.45866666 178.40355555-14.56355555 18.20444445-29.12711111 40.04977778-50.97244444 80.09955556z" p-id="1959"></path><path d="M373.64622222 428.25955555c-18.20444445 0-36.40888889 14.56355555-36.40888889 36.4088889v36.40888888c0 18.20444445 14.56355555 36.40888889 36.40888889 36.40888889 18.20444445 0 36.40888889-14.56355555 36.40888889-36.40888889v-36.40888888c0-21.84533333-18.20444445-36.40888889-36.40888889-36.4088889zM650.35377778 428.25955555c-18.20444445 0-36.40888889 14.56355555-36.40888889 36.4088889v36.40888888c0 18.20444445 14.56355555 36.40888889 36.40888889 36.40888889s36.40888889-14.56355555 36.40888889-36.40888889v-36.40888888c0-21.84533333-14.56355555-36.40888889-36.40888889-36.4088889zM690.40355555 581.17688889c-18.20444445-10.92266667-40.04977778-3.64088889-47.33155555 10.92266666-29.12711111 47.33155555-76.45866667 72.81777778-131.072 72.81777778-50.97244445 0-101.94488889-29.12711111-131.072-72.81777778-10.92266667-18.20444445-32.768-21.84533333-47.33155555-10.92266666-18.20444445 10.92266667-21.84533333 32.768-10.92266667 47.33155556 43.69066667 65.536 112.86755555 105.58577778 189.32622222 105.58577777 80.09955555 0 149.27644445-40.04977778 192.96711111-105.58577777 7.28177778-14.56355555 3.64088889-36.40888889-14.56355556-47.33155556zM417.33688889 384.56888889c7.28177778 0 10.92266667 0 18.20444444-3.64088889 25.48622222-14.56355555 50.97244445-21.84533333 76.45866667-21.84533333 29.12711111 0 54.61333333 7.28177778 80.09955555 21.84533333 18.20444445 10.92266667 40.04977778 3.64088889 47.33155556-10.92266667 10.92266667-18.20444445 3.64088889-40.04977778-10.92266666-47.33155555-36.40888889-21.84533333-76.45866667-32.768-116.50844445-32.768-36.40888889 0-72.81777778 10.92266667-112.86755555 32.768-18.20444445 10.92266667-21.84533333 32.768-14.56355556 47.33155555 7.28177778 10.92266667 18.20444445 14.56355555 32.768 14.56355556z" p-id="1960"></path></svg>