<?xml version="1.0" standalone="no"?><!DOCTYPE svg PUBLIC "-//W3C//DTD SVG 1.1//EN" "http://www.w3.org/Graphics/SVG/1.1/DTD/svg11.dtd"><svg t="1529908463892" class="icon" style="" viewBox="0 0 1024 1024" version="1.1" xmlns="http://www.w3.org/2000/svg" p-id="1982" xmlns:xlink="http://www.w3.org/1999/xlink" width="200" height="200"><defs><style type="text/css"></style></defs><path d="M881.493867 410.466536c-8.498558-30.736025-20.828374-59.85318-36.287461-86.946234 17.605983-23.664979 78.217433-112.175849 34.538631-155.886373l-22.421662-23.664979c-37.361933-37.34556-132.790352 20.98187-155.979494 36.087916-27.393907-15.536858-56.840566-27.859511-87.943958-36.279275C608.417445 114.13855 586.636373 10.490935 525.152043 10.490935l-24.617677 0c-52.789297 0-83.064834 107.167788-89.844238 134.022413-30.6603 8.566096-59.693544 20.951171-86.715991 36.440957-21.318538-15.851013-112.728434-79.031984-157.342538-34.425044l-23.667026 19.908422c-38.893822 38.871309 25.720801 141.408637 37.529755 159.359474-14.95255 26.671453-26.930349 55.237045-35.19764 85.359087-25.764803 4.117784-135.825478 25.352411-135.825478 88.671529l0 24.583908c0 54.876842 115.412566 85.336574 136.470161 90.460268 8.372691 29.906124 20.429285 58.248635 35.428907 84.720543-12.423961 19.448958-74.538647 121.531937-36.012192 160.087045l22.422685 18.651802c50.706869 50.733475 156.63748-32.57593 156.63748-32.57593l-4.924149-5.246491c28.097942 16.624632 58.510602 29.783327 90.658789 38.803771 5.260817 21.657252 35.719526 136.25322 90.381473 136.25322l24.617677 0c71.715345 0 89.475847-133.831055 89.475847-133.831055l-6.567579-0.184195c32.484855-8.31027 63.312978-20.828374 91.885733-36.839023 22.39301 14.907525 116.240421 73.617671 153.692405 36.195364l24.924669-24.938995c49.982368-49.997718-31.363312-152.296615-33.637098-155.118893 15.446807-27.054169 27.836999-56.103786 36.366256-86.775342 27.957749-7.085372 133.23242-37.302581 133.23242-89.630367l0-24.602328C1014.526743 430.382121 889.31602 411.586033 881.493867 410.466536z" p-id="1983"></path><path d="M660.318512 666.172335c-2.898003 14.953573-5.460362 31.181163-7.745405 48.604998-40.626279 8.266267-77.897138 12.361539-111.714338 12.361539-30.124088 0-59.232033-4.586458-87.282902-13.758352-28.085662-9.169847-52.469002-23.357987-73.205279-42.574654-20.73423-19.170618-35.84437-41.793872-45.336558-67.760267-9.508561-26.010397-14.233166-53.849442-14.233166-83.568301 0-31.772634 5.246491-62.408375 15.781428-91.918479 10.535961-29.508058 26.471908-54.514591 47.821145-75.051323 21.349237-20.535709 47.131437-35.904745 77.376275-46.118364 30.214139-10.207479 61.823044-15.321964 94.859461-15.321964 35.473933 0 70.874187 3.718695 106.163925 11.141758 0.199545 10.461259 1.334391 26.441209 3.38919 47.974641-22.913872-7.016811-42.405809-11.701506-58.496276-14.07967-16.090467-2.376117-31.363312-3.565199-45.810349-3.565199-24.526603 0-48.083112 3.780093-70.550823 11.310603-22.500457 7.522324-42.407855 19.540032-59.737546 36.050054-17.330714 16.510022-30.583552 36.776601-39.770795 60.810994-9.18622 24.032346-13.755282 49.047066-13.755282 75.051323 0 24.140817 3.648087 47.039339 10.981099 68.708871 7.314593 21.671579 18.557658 39.971363 33.740452 54.906517 15.154141 15.001669 33.160237 26.425859 54.002938 34.388205 20.826328 7.942903 44.246737 11.883655 70.241784 11.883655C579.845713 685.650969 617.605711 679.164231 660.318512 666.172335z" p-id="1984"></path></svg>