<?xml version="1.0" standalone="no"?><!DOCTYPE svg PUBLIC "-//W3C//DTD SVG 1.1//EN" "http://www.w3.org/Graphics/SVG/1.1/DTD/svg11.dtd"><svg t="1530156668428" class="icon" style="" viewBox="0 0 1024 1024" version="1.1" xmlns="http://www.w3.org/2000/svg" p-id="522" xmlns:xlink="http://www.w3.org/1999/xlink" width="200" height="200"><defs><style type="text/css"></style></defs><path d="M838.4 326.4C838.4 320 838.4 320 832 313.6c-89.6-140.8-262.4-224-448-160C300.8 185.6 236.8 243.2 192 313.6 192 320 185.6 320 185.6 326.4c0 6.4 0 6.4 0 12.8 0 19.2 19.2 38.4 38.4 38.4 12.8 0 19.2-6.4 25.6-12.8 0-6.4 6.4-6.4 6.4-12.8 32-51.2 76.8-89.6 128-115.2 160-70.4 313.6 0 390.4 121.6 0 0 0 0 0 0 6.4 12.8 19.2 19.2 32 19.2 19.2 0 38.4-19.2 38.4-38.4C844.8 332.8 838.4 332.8 838.4 326.4z" p-id="523"></path><path d="M409.6 409.6c0 0 83.2 147.2 102.4 166.4 19.2 19.2 51.2 19.2 64 0 19.2-19.2 19.2-51.2 0-64C563.2 492.8 409.6 409.6 409.6 409.6z" p-id="524"></path><path d="M512 12.8C236.8 12.8 12.8 236.8 12.8 512s224 499.2 499.2 499.2 499.2-224 499.2-499.2S787.2 12.8 512 12.8zM512 953.6c-243.2 0-441.6-198.4-441.6-441.6 0-243.2 198.4-441.6 441.6-441.6s441.6 198.4 441.6 441.6C953.6 755.2 755.2 953.6 512 953.6z" p-id="525"></path></svg>