<?xml version="1.0" standalone="no"?><!DOCTYPE svg PUBLIC "-//W3C//DTD SVG 1.1//EN" "http://www.w3.org/Graphics/SVG/1.1/DTD/svg11.dtd"><svg t="1538295781738" class="icon" style="" viewBox="0 0 1024 1024" version="1.1" xmlns="http://www.w3.org/2000/svg" p-id="1294" xmlns:xlink="http://www.w3.org/1999/xlink" width="300" height="300"><defs><style type="text/css"></style></defs><path d="M18.5 0v1024" fill="" p-id="1295"></path><path d="M34.5 0v1024" fill="" p-id="1296"></path><path d="M50.5 0v1024" fill="" p-id="1297"></path><path d="M66.5 0v1024" fill="" p-id="1298"></path><path d="M82.5 0v1024" fill="" p-id="1299"></path><path d="M98.5 0v1024" fill="" p-id="1300"></path><path d="M114.5 0v1024" fill="" p-id="1301"></path><path d="M130.5 0v1024" fill="" p-id="1302"></path><path d="M146.5 0v1024" fill="" p-id="1303"></path><path d="M162.5 0v1024" fill="" p-id="1304"></path><path d="M178.5 0v1024" fill="" p-id="1305"></path><path d="M194.5 0v1024" fill="" p-id="1306"></path><path d="M210.5 0v1024" fill="" p-id="1307"></path><path d="M226.5 0v1024" fill="" p-id="1308"></path><path d="M242.5 0v1024" fill="" p-id="1309"></path><path d="M258.5 0v1024" fill="" p-id="1310"></path><path d="M274.5 0v1024" fill="" p-id="1311"></path><path d="M290.5 0v1024" fill="" p-id="1312"></path><path d="M306.5 0v1024" fill="" p-id="1313"></path><path d="M322.5 0v1024" fill="" p-id="1314"></path><path d="M338.5 0v1024" fill="" p-id="1315"></path><path d="M354.5 0v1024" fill="" p-id="1316"></path><path d="M370.5 0v1024" fill="" p-id="1317"></path><path d="M386.5 0v1024" fill="" p-id="1318"></path><path d="M402.5 0v1024" fill="" p-id="1319"></path><path d="M418.5 0v1024" fill="" p-id="1320"></path><path d="M434.5 0v1024" fill="" p-id="1321"></path><path d="M450.5 0v1024" fill="" p-id="1322"></path><path d="M466.5 0v1024" fill="" p-id="1323"></path><path d="M482.5 0v1024" fill="" p-id="1324"></path><path d="M498.5 0v1024" fill="" p-id="1325"></path><path d="M514.5 0v1024" fill="" p-id="1326"></path><path d="M530.5 0v1024" fill="" p-id="1327"></path><path d="M546.5 0v1024" fill="" p-id="1328"></path><path d="M562.5 0v1024" fill="" p-id="1329"></path><path d="M578.5 0v1024" fill="" p-id="1330"></path><path d="M594.5 0v1024" fill="" p-id="1331"></path><path d="M610.5 0v1024" fill="" p-id="1332"></path><path d="M626.5 0v1024" fill="" p-id="1333"></path><path d="M642.5 0v1024" fill="" p-id="1334"></path><path d="M658.5 0v1024" fill="" p-id="1335"></path><path d="M674.5 0v1024" fill="" p-id="1336"></path><path d="M690.5 0v1024" fill="" p-id="1337"></path><path d="M706.5 0v1024" fill="" p-id="1338"></path><path d="M722.5 0v1024" fill="" p-id="1339"></path><path d="M738.5 0v1024" fill="" p-id="1340"></path><path d="M754.5 0v1024" fill="" p-id="1341"></path><path d="M770.5 0v1024" fill="" p-id="1342"></path><path d="M786.5 0v1024" fill="" p-id="1343"></path><path d="M802.5 0v1024" fill="" p-id="1344"></path><path d="M818.5 0v1024" fill="" p-id="1345"></path><path d="M834.5 0v1024" fill="" p-id="1346"></path><path d="M850.5 0v1024" fill="" p-id="1347"></path><path d="M866.5 0v1024" fill="" p-id="1348"></path><path d="M882.5 0v1024" fill="" p-id="1349"></path><path d="M898.5 0v1024" fill="" p-id="1350"></path><path d="M914.5 0v1024" fill="" p-id="1351"></path><path d="M930.5 0v1024" fill="" p-id="1352"></path><path d="M946.5 0v1024" fill="" p-id="1353"></path><path d="M962.5 0v1024" fill="" p-id="1354"></path><path d="M978.5 0v1024" fill="" p-id="1355"></path><path d="M994.5 0v1024" fill="" p-id="1356"></path><path d="M1010.5 0v1024M2.5 16h1019" fill="" p-id="1357"></path><path d="M2.5 32h1019" fill="" p-id="1358"></path><path d="M2.5 48h1019" fill="" p-id="1359"></path><path d="M2.5 64h1019" fill="" p-id="1360"></path><path d="M2.5 80h1019" fill="" p-id="1361"></path><path d="M2.5 96h1019" fill="" p-id="1362"></path><path d="M2.5 112h1019" fill="" p-id="1363"></path><path d="M2.5 128h1019" fill="" p-id="1364"></path><path d="M2.5 144h1019" fill="" p-id="1365"></path><path d="M2.5 160h1019" fill="" p-id="1366"></path><path d="M2.5 176h1019" fill="" p-id="1367"></path><path d="M2.5 192h1019" fill="" p-id="1368"></path><path d="M2.5 208h1019" fill="" p-id="1369"></path><path d="M2.5 224h1019" fill="" p-id="1370"></path><path d="M2.5 240h1019" fill="" p-id="1371"></path><path d="M2.5 256h1019" fill="" p-id="1372"></path><path d="M2.5 272h1019" fill="" p-id="1373"></path><path d="M2.5 288h1019" fill="" p-id="1374"></path><path d="M2.5 304h1019" fill="" p-id="1375"></path><path d="M2.5 320h1019" fill="" p-id="1376"></path><path d="M2.5 336h1019" fill="" p-id="1377"></path><path d="M2.5 352h1019" fill="" p-id="1378"></path><path d="M2.5 368h1019" fill="" p-id="1379"></path><path d="M2.5 384h1019" fill="" p-id="1380"></path><path d="M2.5 400h1019" fill="" p-id="1381"></path><path d="M2.5 416h1019" fill="" p-id="1382"></path><path d="M2.5 432h1019" fill="" p-id="1383"></path><path d="M2.5 448h1019" fill="" p-id="1384"></path><path d="M2.5 464h1019" fill="" p-id="1385"></path><path d="M2.5 480h1019" fill="" p-id="1386"></path><path d="M2.5 496h1019" fill="" p-id="1387"></path><path d="M2.5 512h1019" fill="" p-id="1388"></path><path d="M2.5 528h1019" fill="" p-id="1389"></path><path d="M2.5 544h1019" fill="" p-id="1390"></path><path d="M2.5 560h1019" fill="" p-id="1391"></path><path d="M2.5 576h1019" fill="" p-id="1392"></path><path d="M2.5 592h1019" fill="" p-id="1393"></path><path d="M2.5 608h1019" fill="" p-id="1394"></path><path d="M2.5 624h1019" fill="" p-id="1395"></path><path d="M2.5 640h1019" fill="" p-id="1396"></path><path d="M2.5 656h1019" fill="" p-id="1397"></path><path d="M2.5 672h1019" fill="" p-id="1398"></path><path d="M2.5 688h1019" fill="" p-id="1399"></path><path d="M2.5 704h1019" fill="" p-id="1400"></path><path d="M2.5 720h1019" fill="" p-id="1401"></path><path d="M2.5 736h1019" fill="" p-id="1402"></path><path d="M2.5 752h1019" fill="" p-id="1403"></path><path d="M2.5 768h1019" fill="" p-id="1404"></path><path d="M2.5 784h1019" fill="" p-id="1405"></path><path d="M2.5 800h1019" fill="" p-id="1406"></path><path d="M2.5 816h1019" fill="" p-id="1407"></path><path d="M2.5 832h1019" fill="" p-id="1408"></path><path d="M2.5 848h1019" fill="" p-id="1409"></path><path d="M2.5 864h1019" fill="" p-id="1410"></path><path d="M2.5 880h1019" fill="" p-id="1411"></path><path d="M2.5 896h1019" fill="" p-id="1412"></path><path d="M2.5 912h1019" fill="" p-id="1413"></path><path d="M2.5 928h1019" fill="" p-id="1414"></path><path d="M2.5 944h1019" fill="" p-id="1415"></path><path d="M2.5 960h1019" fill="" p-id="1416"></path><path d="M2.5 976h1019" fill="" p-id="1417"></path><path d="M2.5 992h1019" fill="" p-id="1418"></path><path d="M2.5 1008h1019" fill="" p-id="1419"></path><path d="M239.71533665 325.86882587h544.56675285c15.38138029 0 26.1516925 20.00274378 13.84736042 33.84238262l-266.13314079 326.1207813c-9.22857079 12.29918436-29.23002764 12.29918436-38.44958992 0l-269.20761512-326.1207813c-10.77288609-13.84736044-1.54045452-33.84238264 15.38138028-33.84238262z" fill="#666666" p-id="1420"></path></svg>