<?xml version="1.0" standalone="no"?><!DOCTYPE svg PUBLIC "-//W3C//DTD SVG 1.1//EN" "http://www.w3.org/Graphics/SVG/1.1/DTD/svg11.dtd"><svg class="icon" width="300px" height="300.00px" viewBox="0 0 1024 1024" version="1.1" xmlns="http://www.w3.org/2000/svg"><path fill="rgb(100,170,230)" d="M66.782609 1019.236174l-44.521739-44.521739h44.521739v44.521739zM66.782609 181.648696v793.065739h698.991304a48.083478 48.083478 0 0 0 48.217044-48.083478v-512h44.521739v512a92.605217 92.605217 0 0 1-92.694261 92.605217H22.26087V181.648696A92.605217 92.605217 0 0 1 114.95513 89.043478h464.806957v44.521739H114.95513A48.083478 48.083478 0 0 0 66.782609 181.648696z"  /><path fill="rgb(100,170,230)" d="M272.205913 714.573913l143.671652-42.384696L917.504 170.562783c28.004174-28.004174 28.048696-73.594435 0.222609-101.509566a71.858087 71.858087 0 0 0-101.509566 0.222609L314.590609 570.902261l-42.384696 143.716174zM784.740174 37.843478A116.379826 116.379826 0 0 1 949.203478 37.62087a116.424348 116.424348 0 0 1-0.178087 164.418782L439.340522 711.68l-190.241392 56.141913c-23.596522 6.989913-37.13113-6.455652-30.141217-30.096696l56.141913-190.285913L784.740174 37.843478z"  /></svg>