<?xml version="1.0" standalone="no"?><!DOCTYPE svg PUBLIC "-//W3C//DTD SVG 1.1//EN" "http://www.w3.org/Graphics/SVG/1.1/DTD/svg11.dtd"><svg t="1530156832590" class="icon" style="" viewBox="0 0 1024 1024" version="1.1" xmlns="http://www.w3.org/2000/svg" p-id="4270" xmlns:xlink="http://www.w3.org/1999/xlink" width="200" height="200"><defs><style type="text/css"></style></defs><path d="M930.635589 762.89626l-35.102473 0L895.533117 447.645296c0-51.880601-10.168594-102.226243-30.221302-149.637042-19.361977-45.778626-47.075155-86.884836-82.367963-122.178667s-76.400041-63.005986-122.178667-82.368986c-47.410799-20.053732-97.756441-30.221302-149.637042-30.221302s-102.226243 10.16757-149.637042 30.221302c-45.778626 19.363-86.885859 47.075155-122.178667 82.368986s-63.005986 76.400041-82.368986 122.178667c-20.053732 47.411823-30.221302 97.756441-30.221302 149.637042l0 315.250964-30.988782 0c-16.954137 0-30.699186 13.745049-30.699186 30.699186l0 134.263913c0 16.954137 13.745049 30.699186 30.699186 30.699186l834.903248 0c16.954137 0 30.699186-13.745049 30.699186-30.699186L961.335798 793.595446C961.334775 776.640286 947.590749 762.89626 930.635589 762.89626zM188.119495 447.645296c0-86.278016 33.598212-167.392428 94.606705-228.399897 61.008492-61.008492 142.122905-94.606705 228.40092-94.606705s167.393451 33.598212 228.40092 94.606705c61.008492 61.007469 94.606705 142.121881 94.606705 228.399897L834.134745 762.591315 188.119495 762.591315 188.119495 447.645296zM899.936403 897.160173 126.431527 897.160173l0-72.865541 773.504876 0L899.936403 897.160173z" p-id="4271"></path><path d="M377.23876 193.35166c-55.954383 31.963992-100.0466 79.623455-127.510092 137.825019-7.235798 15.33322-0.671289 33.628912 14.661931 40.86471 4.233418 1.997494 8.69094 2.943029 13.080923 2.943029 11.511171 0 22.545482-6.504134 27.783787-17.60496 22.059412-46.747697 57.482179-85.031629 102.43909-110.713544 14.722306-8.410554 19.838837-27.16264 11.428284-41.883923C410.712129 190.05866 391.961066 184.941106 377.23876 193.35166z" p-id="4272"></path></svg>