<?xml version="1.0" standalone="no"?><!DOCTYPE svg PUBLIC "-//W3C//DTD SVG 1.1//EN" "http://www.w3.org/Graphics/SVG/1.1/DTD/svg11.dtd"><svg t="1531299892379" class="icon" style="" viewBox="0 0 1024 1024" version="1.1" xmlns="http://www.w3.org/2000/svg" p-id="1117" xmlns:xlink="http://www.w3.org/1999/xlink" width="200" height="200"><defs><style type="text/css"></style></defs><path d="M1024 204.8c0-113.152-91.648-204.8-204.8-204.8L204.8 0C91.648 0 0 91.648 0 204.8l0 614.4c0 113.152 91.648 204.8 204.8 204.8l614.4 0c113.152 0 204.8-91.648 204.8-204.8L1024 204.8zM276.48 816.128c0 0-41.472 4.608-64-17.92-28.16-28.16-21.504-71.68-21.504-71.68l201.728-196.096 81.408 77.824L276.48 816.128zM708.608 870.912c-69.632-69.632-139.264-139.264-208.896-208.896l48.64-49.664L315.904 389.632l-58.88-5.12L201.728 297.984l24.576-24.576 24.576-24.576 24.576-24.576 86.528 55.808L366.592 343.04l230.4 221.696 38.912-39.424c69.632 69.632 139.264 139.264 208.896 208.896C821.76 801.792 780.288 851.968 708.608 870.912zM808.448 425.984c-48.64 41.984-120.32 54.272-189.952 24.064l-34.816 36.352L509.44 416.256l36.352-35.84c-32.256-67.584-17.92-142.336 28.16-187.392 49.152-48.64 122.88-48.64 122.88-48.64l14.848 37.888-73.728 74.752 107.008 105.984 73.216-74.24 37.888 14.848C856.064 303.104 856.064 384.512 808.448 425.984z" fill="#f84216" p-id="1118"></path></svg>