<?xml version="1.0" standalone="no"?><!DOCTYPE svg PUBLIC "-//W3C//DTD SVG 1.1//EN" "http://www.w3.org/Graphics/SVG/1.1/DTD/svg11.dtd"><svg t="1530156623546" class="icon" style="" viewBox="0 0 1024 1024" version="1.1" xmlns="http://www.w3.org/2000/svg" p-id="52817" xmlns:xlink="http://www.w3.org/1999/xlink" width="200" height="200"><defs><style type="text/css"></style></defs><path d="M512 56.888889c108.515556 2.360889 198.883556 38.371556 271.132444 108.003555 72.248889 69.632 109.880889 156.871111 112.867556 261.774223 0 29.639111-3.754667 58.965333-11.235556 88.007111A352.938667 352.938667 0 0 1 851.911111 597.333333c-41.984 66.958222-106.581333 143.246222-193.792 228.892445l-126.435555 121.884444a28.444444 28.444444 0 0 1-39.452445 0l-126.862222-121.884444c-87.523556-85.617778-152.263111-162.218667-194.218667-229.774222A366.336 366.336 0 0 1 128 426.666667c2.986667-104.903111 40.618667-192.142222 112.867556-261.774223C313.116444 95.260444 403.484444 59.249778 512 56.888889zM280.348444 205.852444C218.965333 265.016889 187.448889 338.119111 184.888889 426.097778a309.276444 309.276444 0 0 0 35.669333 142.051555c39.310222 62.776889 100.864 135.452444 184.291556 217.031111l107.093333 102.968889 106.353778-102.513777c83.683556-82.176 145.237333-154.737778 184.576-217.144889a296.106667 296.106667 0 0 0 26.794667-68.039111c6.314667-24.405333 9.443556-48.952889 9.472-72.163556-2.56-90.168889-34.104889-163.271111-95.488-222.435556C682.211556 146.631111 605.952 116.110222 512 113.777778c-93.952 2.275556-170.211556 32.824889-231.651556 92.046222zM341.333333 426.666667c1.194667-48.071111 17.806222-88.234667 49.863111-120.462223C423.224889 273.92 463.502222 257.223111 512 256c48.497778 1.223111 88.775111 17.948444 120.803556 50.204444C664.860444 338.432 681.443556 378.595556 682.666667 426.666667c-1.194667 48.071111-17.806222 88.234667-49.863111 120.462222C600.775111 579.413333 560.497778 596.110222 512 597.333333c-48.497778-1.223111-88.775111-17.948444-120.803556-50.204444C359.139556 514.901333 342.556444 474.737778 341.333333 426.666667z m90.197334 80.384c21.219556 21.333333 47.047111 32.256 80.469333 33.365333 33.422222-1.137778 59.249778-12.032 80.469333-33.365333 21.617778-21.788444 32.483556-48.042667 33.336889-78.961778-0.853333-33.763556-11.719111-60.017778-33.336889-81.806222-21.219556-21.333333-47.047111-32.256-80.469333-33.365334-33.422222 1.137778-59.249778 12.032-80.469333 33.365334-21.333333 21.475556-32.170667 47.303111-33.28 80.384 1.109333 33.080889 11.946667 58.908444 33.28 80.384z" p-id="52818"></path></svg>