<?xml version="1.0" standalone="no"?><!DOCTYPE svg PUBLIC "-//W3C//DTD SVG 1.1//EN" "http://www.w3.org/Graphics/SVG/1.1/DTD/svg11.dtd"><svg t="1532567969288" class="icon" style="" viewBox="0 0 1024 1024" version="1.1" xmlns="http://www.w3.org/2000/svg" p-id="2067" xmlns:xlink="http://www.w3.org/1999/xlink" width="200" height="200"><defs><style type="text/css"></style></defs><path d="M768 960a256 256 0 1 1 0-512 256 256 0 0 1 0 512z m0-448a192.064 192.064 0 0 0 0 384 192.064 192.064 0 0 0 0-384z m-9.856 287.488l-6.144-7.04-4.992 5.504-101.248-91.2 43.136-47.232 70.848 63.744 133.376-129.6 35.392 40.32-170.368 165.504zM128 742.016v-64h322.624C449.856 686.72 448 695.104 448 704c0 12.992 2.304 25.344 3.904 38.016H128z m0-532.032h256v192H128v-192z m384 303.744A319.104 319.104 0 0 0 475.008 576H128V512h384v1.728zM832 128H64v716.032h417.472c11.392 23.104 25.472 44.352 41.856 64H64a64 64 0 0 1-64-64V128a64 64 0 0 1 64-64h768a64 64 0 0 1 64 64v283.008a319.232 319.232 0 0 0-64-20.544V128z" p-id="2068"></path></svg>