<?xml version="1.0" standalone="no"?><!DOCTYPE svg PUBLIC "-//W3C//DTD SVG 1.1//EN" "http://www.w3.org/Graphics/SVG/1.1/DTD/svg11.dtd"><svg t="1528772845352" class="icon" style="" viewBox="0 0 1143 1024" version="1.1" xmlns="http://www.w3.org/2000/svg" p-id="5084" xmlns:xlink="http://www.w3.org/1999/xlink" width="223.2421875" height="200"><defs><style type="text/css"></style></defs><path d="M454.058899 55.774838l412.702979 411.11039a79.441042 79.441042 0 0 1 0 112.577153 79.441042 79.441042 0 0 1-112.114789 0L341.97836 168.403365a79.441042 79.441042 0 0 1 0-112.628527 79.441042 79.441042 0 0 1 112.080539 0zM397.992943 0" fill="" p-id="5085"></path><path d="M866.830376 579.513755l-412.702978 411.127515a79.441042 79.441042 0 0 1-112.114789 0 79.441042 79.441042 0 0 1 0-112.577153L754.681339 466.936602a79.441042 79.441042 0 0 1 112.114788 0 79.441042 79.441042 0 0 1 0.034249 112.577153z m56.511196-56.288576M344.940917 443.938258a79.286921 79.286921 0 1 1-79.595164 79.338294 79.441042 79.441042 0 0 1 79.612288-79.28692z m0 0M79.595164 443.938258A79.286921 79.286921 0 1 1 0 523.276552a79.441042 79.441042 0 0 1 79.595164-79.28692z m0 0" fill="" p-id="5086"></path><path d="M1002.816864 42.760138l140.42176 0 0 981.239862-140.42176 0 0-981.239862Z" fill="" p-id="5087"></path></svg>