<?xml version="1.0" standalone="no"?><!DOCTYPE svg PUBLIC "-//W3C//DTD SVG 1.1//EN" "http://www.w3.org/Graphics/SVG/1.1/DTD/svg11.dtd"><svg t="1530153724744" class="icon" style="" viewBox="0 0 1055 1024" version="1.1" xmlns="http://www.w3.org/2000/svg" p-id="26924" xmlns:xlink="http://www.w3.org/1999/xlink" width="206.0546875" height="200"><defs><style type="text/css"></style></defs><path d="M164.864 323.584c6.144-11.776 14.336-27.136 20.48-36.864 73.728-115.2 202.752-192 349.696-192 228.864 0 414.208 185.344 414.208 414.208s-185.344 414.208-414.208 414.208c-148.992 0-279.552-78.336-352.256-196.096-9.728-15.872-13.312-24.064-13.312-24.064-7.68-14.848-25.6-21.504-40.448-14.848-15.36 6.144-21.504 23.04-14.336 37.376 0 0 4.608 10.752 15.36 28.16 82.944 137.216 233.472 228.864 405.504 228.864 261.632 0 473.6-211.968 473.6-473.6s-211.968-473.6-473.6-473.6c-169.472 0-317.952 89.088-401.92 222.72-4.096 6.656-9.216 16.384-14.336 25.6l-15.872-100.864c-2.56-15.872-17.408-27.136-33.792-24.576-16.384 2.56-27.136 17.92-24.576 33.792l23.04 146.432c5.12 32.256 35.328 54.272 67.584 49.152l146.432-23.04c15.872-2.56 27.136-17.408 24.576-33.792-2.56-16.384-17.92-27.136-33.792-24.576l-108.032 17.408z m370.176-80.896c0-16.384-13.312-29.696-29.696-29.696-16.384 0-29.696 13.312-29.696 29.696v266.24c0 32.768 26.624 59.392 59.392 59.392h266.24c16.384 0 29.696-13.312 29.696-29.696 0-16.384-13.312-29.696-29.696-29.696h-237.056c-16.384 0-29.696-13.312-29.696-29.696v-236.544h0.512z" fill="" p-id="26925"></path></svg>