<?xml version="1.0" standalone="no"?><!DOCTYPE svg PUBLIC "-//W3C//DTD SVG 1.1//EN" "http://www.w3.org/Graphics/SVG/1.1/DTD/svg11.dtd"><svg class="icon" width="50px" height="50.00px" viewBox="0 0 1024 1024" version="1.1" xmlns="http://www.w3.org/2000/svg"><path fill="#007aff" d="M733.952 963.264 620.224 963.264c-11.84 0-21.504-9.92-21.504-22.08l0-204.864c0-26.56-21.056-48.128-46.848-48.128L472.064 688.192c-25.856 0-46.848 21.568-46.848 48.128l0 204.864c0 12.16-9.664 22.08-21.504 22.08L289.536 963.264c-49.6 0-89.856-41.408-89.856-92.288L199.68 549.952C173.44 551.104 131.2 552.192 131.136 552.192 124.864 552.96 119.104 550.208 114.816 545.728 78.208 508.224 78.08 434.688 114.368 397.312l331.264-340.032c35.328-36.288 96.96-36.288 132.352 0l331.2 340.032c36.608 37.696 36.864 111.168 0.576 148.416-4.288 4.48-10.048 7.232-16.32 6.464-0.128 0-42.496-2.56-69.504-2.176l0 321.024C823.872 921.92 783.552 963.264 733.952 963.264zM641.728 919.104l92.224 0c25.856 0 46.848-21.568 46.848-48.128L780.8 530.112c0-24.32 25.152-24.32 45.376-24.32 18.944 0 44.224 1.088 58.496 1.728 14.08-22.336 11.968-60.48-6.08-78.976L547.456 88.448c-19.072-19.584-52.352-19.584-71.552 0L144.768 428.608C126.976 446.912 125.312 485.12 139.648 507.584c14.08-0.64 39.168-1.728 57.856-1.728 20.096 0 45.12 0 45.12 24.32l0 340.864c0 26.56 21.056 48.128 46.848 48.128l92.672 0 0-182.784c0-50.88 40.32-92.288 89.856-92.288l79.808 0c49.536 0 89.856 41.408 89.856 92.288L641.728 919.104 641.728 919.104z" /></svg>