<?xml version="1.0" standalone="no"?><!DOCTYPE svg PUBLIC "-//W3C//DTD SVG 1.1//EN" "http://www.w3.org/Graphics/SVG/1.1/DTD/svg11.dtd"><svg class="icon" width="200px" height="140.18px" viewBox="0 0 1461 1024" version="1.1" xmlns="http://www.w3.org/2000/svg"><path fill="#333333" d="M1141.837645 165.338091l100.481713-100.481713-63.942908-64.856378-122.404996 122.404996A829.430865 829.430865 0 0 0 730.776093 54.808207a795.632471 795.632471 0 0 0-730.776093 456.735058 763.661017 763.661017 0 0 0 319.714541 347.118644l-100.481713 100.481713 64.856378 64.856378 121.491525-122.404996A829.430865 829.430865 0 0 0 730.776093 968.278323a795.632471 795.632471 0 0 0 730.776093-456.735058 763.661017 763.661017 0 0 0-319.714541-346.205174zM101.395183 511.543265A706.1124 706.1124 0 0 1 730.776093 146.155219a743.564674 743.564674 0 0 1 254.858162 45.673505L888.806423 288.656557a274.041035 274.041035 0 0 0-380.917039 381.830508L386.397859 791.978591A675.054416 675.054416 0 0 1 101.395183 511.543265z m812.074933 0a182.694023 182.694023 0 0 1-182.694023 182.694023 182.694023 182.694023 0 0 1-91.347012-25.577163l248.463872-249.377342A182.694023 182.694023 0 0 1 913.470116 511.543265z m-365.388046 0a182.694023 182.694023 0 0 1 182.694023-182.694023 182.694023 182.694023 0 0 1 91.347011 25.577163L573.659233 603.803747A182.694023 182.694023 0 0 1 548.08207 511.543265z m182.694023 365.388046a743.564674 743.564674 0 0 1-254.858163-45.673505L572.745763 730.776093a274.041035 274.041035 0 0 0 380.917038-380.917039l121.491525-121.491525a675.054416 675.054416 0 0 1 285.002677 283.175736A706.1124 706.1124 0 0 1 730.776093 876.931311z" /></svg>