<?xml version="1.0" standalone="no"?><!DOCTYPE svg PUBLIC "-//W3C//DTD SVG 1.1//EN" "http://www.w3.org/Graphics/SVG/1.1/DTD/svg11.dtd"><svg t="1543478044636" class="icon" style="" viewBox="0 0 1228 1024" version="1.1" xmlns="http://www.w3.org/2000/svg" p-id="16857" xmlns:xlink="http://www.w3.org/1999/xlink" width="359.765625" height="300"><defs><style type="text/css"></style></defs><path d="M76.8 101.888v820.224c0 13.2096 11.8784 25.088 25.8048 25.088h1023.5904a26.0096 26.0096 0 0 0 25.8048-25.088V101.888a26.2144 26.2144 0 0 0-25.8048-25.088H102.6048A26.0096 26.0096 0 0 0 76.8 101.888z m-76.8 0C0 45.568 46.6944 0 102.6048 0h1023.5904C1182.72 0 1228.8 46.6944 1228.8 101.888v820.224c0 56.32-46.6944 101.888-102.6048 101.888H102.6048A102.912 102.912 0 0 1 0 922.112V101.888z" fill="#ffffff" p-id="16858"></path><path d="M307.2 307.2m-102.4 0a102.4 102.4 0 1 0 204.8 0 102.4 102.4 0 1 0-204.8 0Z" fill="#ffffff" p-id="16859"></path><path d="M484.9664 606.0032H434.176l25.3952-22.3232 25.3952 22.3232zM63.5904 858.5216l-52.6336-56.0128L300.2368 530.432a72.8064 72.8064 0 0 1 97.5872-1.2288l61.7472 54.4768 323.2768-284.7744a73.728 73.728 0 0 1 96.9728 0.4096l336.0768 307.2-51.712 56.6272-333.2096-304.3328-371.4048 327.168-109.7728-96.6656L63.5904 858.5216z" fill="#ffffff" p-id="16860"></path></svg>