<?xml version="1.0" standalone="no"?><!DOCTYPE svg PUBLIC "-//W3C//DTD SVG 1.1//EN" "http://www.w3.org/Graphics/SVG/1.1/DTD/svg11.dtd"><svg t="1536817254740" class="icon" style="" viewBox="0 0 1024 1024" version="1.1" xmlns="http://www.w3.org/2000/svg" p-id="1951" xmlns:xlink="http://www.w3.org/1999/xlink" width="300" height="300"><defs><style type="text/css"></style></defs><path d="M599.552 419.328c0 6.656 0.512 13.824 0.512 19.968l92.16 0.512c10.752 1.536 8.704 10.752 5.12 14.848L526.848 747.52c-3.584 6.144-13.824 5.12-16.384 0L347.648 453.12c-4.608-4.608-5.12-14.848 5.12-14.848l93.184 0.512c4.608-193.024 198.656-350.208 388.096-365.056-137.728 54.784-234.496 188.416-234.496 345.6z"  p-id="1952"></path><path d="M981.504 728.064l-143.872-111.104c-8.192-6.144-23.04-11.776-33.792-11.776h-82.944l29.696 29.184 98.816 98.304s1.536 2.56 0.512 4.608c-1.024 2.56-4.608 3.072-4.608 3.072h-141.824c-5.12 0-8.704 3.072-11.776 9.216l-36.864 83.456s-3.072 6.144-7.168 8.704c-3.584 2.048-13.312 1.024-13.312 1.024h-245.76s-11.264 0.512-13.824-2.048c-2.048-2.048-5.632-7.68-5.632-7.68L332.8 750.08c-3.072-6.656-6.656-9.216-11.776-9.216H180.224s-2.048-0.512-3.072-3.072c-1.024-3.072 1.536-5.632 1.536-5.632l126.464-126.976H220.16c-10.24 0-25.6 5.12-33.792 11.776L42.496 728.064c-8.192 6.144-12.288 19.456-9.216 29.696l57.344 175.616c3.072 9.728 14.336 17.92 24.576 17.92h793.6c10.24 0 21.504-8.192 24.576-17.92l56.32-175.616c4.096-10.24 0-23.552-8.192-29.696z m-414.72 182.784c0 1.536-1.024 2.56-2.56 2.56H459.264c-1.536 0-2.56-1.024-2.56-2.56v-2.56c0-1.536 1.024-2.56 2.56-2.56h104.96c1.536 0 2.56 1.024 2.56 2.56v2.56z m0-25.088c0 1.536-1.024 2.56-2.56 2.56H459.264c-1.536 0-2.56-1.024-2.56-2.56v-2.56c0-1.536 1.024-2.56 2.56-2.56h104.96c1.536 0 2.56 1.024 2.56 2.56v2.56z"  p-id="1953"></path></svg>