<?xml version="1.0" standalone="no"?><!DOCTYPE svg PUBLIC "-//W3C//DTD SVG 1.1//EN"
        "http://www.w3.org/Graphics/SVG/1.1/DTD/svg11.dtd">
<svg class="icon" width="50px" height="50.00px" viewBox="0 0 1024 1024" version="1.1"
     xmlns="http://www.w3.org/2000/svg">
    <path fill="#007aff"
          d="M382.350222 499.911111a227.555556 227.555556 0 1 1 250.026667 6.087111C794.112 561.863111 910.222222 715.377778 910.222222 896a28.444444 28.444444 0 0 1-56.888889 0C853.333333 699.619556 694.158222 540.444444 497.777778 540.444444S142.222222 699.619556 142.222222 896a28.444444 28.444444 0 0 1-56.888889 0c0-187.733333 125.411556-346.168889 297.016889-396.088889zM512 483.555556a170.666667 170.666667 0 1 0 0-341.333334 170.666667 170.666667 0 0 0 0 341.333334z"/>
</svg>