<?xml version="1.0" standalone="no"?><!DOCTYPE svg PUBLIC "-//W3C//DTD SVG 1.1//EN" "http://www.w3.org/Graphics/SVG/1.1/DTD/svg11.dtd"><svg t="1548670936238" class="icon" style="" viewBox="0 0 1024 1024" version="1.1" xmlns="http://www.w3.org/2000/svg" p-id="2508" xmlns:xlink="http://www.w3.org/1999/xlink" width="200" height="200"><defs><style type="text/css"></style></defs><path d="M506.976918 682.796284a26.861398 26.861398 0 0 1-18.802978-7.226996 25.326461 25.326461 0 0 1-7.482819-18.227377c0-6.587438 2.494273-13.238832 7.482819-18.099466l103.928029-100.7942h-565.176615A26.285797 26.285797 0 0 1 0 512.354315c0-14.517946 11.895762-26.09393 26.925354-26.09393h564.537058l-103.92803-100.666289a25.262506 25.262506 0 0 1-7.482818-18.099466c0-6.71535 2.494273-13.366744 7.482818-18.227378a26.861398 26.861398 0 0 1 18.802979-7.226995c6.843261 0 13.814434 2.366361 18.802979 7.226995l149.528452 144.923641a25.582284 25.582284 0 0 1 7.482818 18.227377 25.326461 25.326461 0 0 1-7.482818 18.227378l-149.528452 145.051552a27.692823 27.692823 0 0 1-18.163422 7.099084" p-id="2509"></path><path d="M502.372107 1023.936044c-223.844987 0-422.299558-139.743228-494.185776-347.791154a29.22776 29.22776 0 0 1-2.494273-11.256205c0-16.244751 13.366744-29.355671 29.867317-29.355672 12.727186 0 24.175259 8.122375 28.012601 19.378581 62.932419 186.111118 239.130402 310.88871 438.22453 310.888709 254.479773 0 461.696275-203.507071 461.696275-453.190166s-207.216503-453.190166-461.696275-453.190165c-204.72223 0-386.676227 134.818638-443.916588 327.773017a29.22776 29.22776 0 0 1-28.012601 19.37858 29.611494 29.611494 0 0 1-29.867317-29.355671c0-2.494273 0.639557-4.348988 0.639557-6.26766V370.372637c0-0.639557 0-1.854716 0.639557-2.494273a514.843471 514.843471 0 0 1 184.512225-262.218414A521.430909 521.430909 0 0 1 501.796506 0.708629c139.295538 0 270.340789 53.722797 368.896539 150.423832a503.843089 503.843089 0 0 1 152.662281 361.477676c1.215159 281.596994-232.862743 511.325907-520.983219 511.325907" p-id="2510"></path></svg>