<?xml version="1.0" standalone="no"?><!DOCTYPE svg PUBLIC "-//W3C//DTD SVG 1.1//EN" "http://www.w3.org/Graphics/SVG/1.1/DTD/svg11.dtd"><svg t="1531885122256" class="icon" style="" viewBox="0 0 1024 1024" version="1.1" xmlns="http://www.w3.org/2000/svg" p-id="1032" xmlns:xlink="http://www.w3.org/1999/xlink" width="200" height="200"><defs><style type="text/css"></style></defs><path d="M234.74902342 205.0859375c0 4.35058594 2.37304688 8.70117188 6.328125 11.07421875s8.70117188 2.37304688 12.65625 0 6.328125-6.328125 6.328125-11.07421875c0-7.11914063-5.53710938-12.65625-12.65625-12.65625-7.11914063 0.39550781-12.65625 5.93261719-12.65625 12.65625z m493.59375 17.40234375c-9.88769531 0-17.79785156-7.91015625-17.79785156-17.79785156s7.91015625-17.79785156 17.79785156-17.79785156 17.79785156 7.91015625 17.79785156 17.79785156-7.91015625 17.79785156-17.79785156 17.79785156z m0-31.24511719c-7.51464844 0-13.44726563 5.93261719-13.44726563 13.44726563s5.93261719 13.44726563 13.44726563 13.44726562 13.44726563-5.93261719 13.44726562-13.44726562-6.328125-13.44726563-13.44726562-13.44726563zM307.52246092 867.95703125H296.44824217V739.41699219h11.07421875v128.54003906z m2.37304687-139.61425781l-10.67871093-3.55957032 22.1484375-66.44531249c10.28320313-30.45410156 20.17089844-60.90820313 30.45410156-90.96679688l10.67871094 3.55957031c-10.28320313 30.45410156-20.17089844 60.90820313-30.45410157 90.96679688l-22.1484375 66.4453125z" fill="" p-id="1033"></path><path d="M296.44824217 739.41699219c-0.39550781-5.14160156 1.18652344-9.4921875 2.37304687-13.44726563l0.39550782-1.18652344 10.67871093 3.55957032-0.39550781 1.18652343c-1.18652344 3.1640625-1.97753906 5.93261719-1.97753906 8.70117188L296.44824217 739.41699219zM314.24609373 888.12792969c-3.95507813 0-9.09667969-0.39550781-13.05175781-4.35058594-4.74609375-4.35058594-4.74609375-10.67871094-4.74609375-15.02929687V867.95703125h11.07421875v0.79101563c0 2.76855469 0 5.53710938 1.18652344 6.72363281l0.39550781 0.39550781c1.18652344 1.18652344 3.95507813 1.18652344 6.72363281 1.18652344h397.08984375c2.37304688 0 3.55957031-0.39550781 4.35058594-0.79101563l0.39550781-0.39550781c0.39550781-0.39550781 0.79101563-1.18652344 1.18652344-3.95507813V740.20800781c0-1.97753906 0-3.95507813-0.39550781-5.53710937-7.11914063-21.75292969-14.63378906-43.50585938-21.75292969-65.25878907-11.07421875-32.82714844-21.75292969-65.65429688-32.82714844-98.48144531-0.79101563-1.97753906-2.37304688-3.55957031-4.35058594-3.55957031H371.59472654c-1.97753906 0-4.35058594 0-5.93261718 0.39550781-1.18652344 0.39550781-2.37304688 1.58203125-2.76855469 2.76855469l-10.67871094-3.55957031c1.58203125-5.14160156 5.53710938-9.09667969 10.67871094-10.28320313 3.1640625-0.79101563 6.328125-0.79101563 8.70117187-0.79101562h287.53417969c6.72363281-0.39550781 13.05175781 4.35058594 15.02929688 11.07421875 11.07421875 32.82714844 21.75292969 65.65429688 32.82714843 98.48144531 7.11914063 21.75292969 14.63378906 43.50585938 21.75292969 65.25878906v0.39550782c0.79101563 3.1640625 0.79101563 6.328125 0.79101563 9.09667968v131.30859375c0 5.53710938-1.58203125 9.4921875-4.74609375 12.26074219-3.95507813 3.95507813-9.4921875 4.35058594-12.26074219 4.35058594H314.24609373z" fill="" p-id="1034"></path><path d="M512.79101561 807.83984375c-12.65625 0-25.3125-3.95507813-35.59570313-11.46972656-14.63378906-10.67871094-24.12597656-27.68554688-24.91699219-45.48339844 0-1.58203125-0.39550781-4.74609375-1.18652343-5.53710938l-0.39550782-0.39550781c-0.39550781-0.39550781-1.97753906-0.79101563-3.95507812-0.79101562H324.13378904c-3.1640625 0-5.53710938-2.37304688-5.53710937-5.53710938s2.37304688-5.53710938 5.53710937-5.53710937h122.60742188c3.95507813 0 8.30566406 0.79101563 11.86523437 3.95507812 4.74609375 3.95507813 5.14160156 10.28320313 5.14160157 13.44726563 0.79101563 14.23828125 8.30566406 28.4765625 20.17089843 36.78222656 9.09667969 6.72363281 20.56640625 9.88769531 31.640625 9.4921875 13.05175781-0.39550781 26.10351563-6.72363281 34.40917969-16.61132813 7.51464844-8.30566406 11.86523438-19.77539063 12.26074219-30.45410156 0-2.76855469 0.39550781-8.30566406 4.74609375-12.26074218 3.55957031-3.95507813 8.70117188-4.35058594 12.26074219-4.74609375h122.60742187c3.1640625 0 5.53710938 2.37304688 5.53710938 5.53710937s-2.37304688 5.53710938-5.53710938 5.53710938H579.23632811c-2.76855469 0-3.95507813 0.39550781-4.35058594 0.79101562l-0.39550781 0.39550781c-0.79101563 0.79101563-1.18652344 3.55957031-1.18652344 4.35058594-0.39550781 13.84277344-5.53710938 27.29003906-15.02929688 37.57324219-10.67871094 12.26074219-26.10351563 19.77539063-42.31933593 20.56640625-1.18652344 0-1.97753906 0.39550781-3.1640625 0.39550781zM947.05859373 423.80175781s-9.09667969 30.45410156-26.89453125 34.8046875c0 0 22.54394531 9.09667969 26.89453125 31.24511719 0 0 3.55957031-32.43164063 29.26757813-33.22265625 0 0-28.08105469-15.02929688-29.26757813-32.82714844z m28.08105469-49.83398437s-3.55957031 11.46972656-10.28320313 13.05175781c0 0 8.30566406 3.55957031 10.28320313 11.86523438 0 0 1.18652344-12.26074219 11.07421875-12.26074219 0 0-10.67871094-5.93261719-11.07421875-12.65625zM426.96582029 139.82714844s-6.72363281 23.33496094-20.56640625 26.49902344c0 0 17.00683594 6.72363281 20.56640625 24.12597656 0 0 2.76855469-24.91699219 22.1484375-25.3125 0.39550781 0-21.35742188-11.46972656-22.1484375-25.3125zM629.46582029 339.95410156l56.16210938 25.3125 92.54882812-72.7734375-70.40039062 75.9375 70.40039062 23.33496094 38.75976563-141.59179688L629.46582029 339.95410156zM707.38085936 385.83300781l-3.95507813 43.11035157 24.12597656-31.640625-20.17089843-11.46972657zM477.19531248 608.89941406c-14.23828125 7.91015625-24.91699219 12.26074219-24.91699219 12.26074219l2.37304688 6.328125c0.39550781 0 11.07421875-4.35058594 25.70800781-12.65625l-3.1640625-5.93261719z m31.640625-21.35742187c-6.72363281 5.14160156-13.44726563 10.28320313-20.56640625 14.63378906-1.58203125 1.18652344-1.97753906 3.1640625-1.18652344 4.74609375 1.18652344 1.58203125 3.1640625 1.97753906 4.74609375 1.18652344 7.51464844-4.74609375 14.63378906-9.88769531 21.35742188-15.02929688 0.79101563-0.79101563 1.58203125-1.97753906 1.18652344-3.1640625 0-1.18652344-1.18652344-2.37304688-1.97753907-2.76855468-1.58203125-0.39550781-2.76855469-0.39550781-3.55957031 0.39550781z m36.38671875-34.8046875c-1.58203125-1.18652344-3.55957031-0.79101563-4.74609375 0.79101562-5.53710938 7.91015625-11.86523438 15.42480469-19.37988281 22.54394531-1.18652344 1.18652344-1.18652344 3.55957031 0 4.74609375s3.55957031 1.18652344 4.74609375 0c7.91015625-7.51464844 14.63378906-15.42480469 20.17089844-23.73046875 0.39550781-0.79101563 0.79101563-1.58203125 0.39550781-2.37304687 0.39550781-0.39550781-0.39550781-1.18652344-1.18652344-1.97753906z m15.42480469-72.37792969c0 1.18652344 0.79101563 2.37304688 1.97753906 2.76855469s2.37304688 0.39550781 3.55957031-0.39550782c0.79101563-0.79101563 1.58203125-1.97753906 1.18652344-3.1640625-1.58203125-15.02929688-7.11914063-26.49902344-15.8203125-34.01367187-1.58203125-1.18652344-3.55957031-0.79101563-4.74609375 0.39550781s-1.18652344 3.55957031 0.39550781 4.74609375c7.51464844 5.93261719 12.26074219 16.21582031 13.44726563 29.66308594z m-54.58007813-33.61816406c0.39550781 0 0.79101563 0 1.58203125-0.39550782 9.09667969-3.95507813 18.984375-5.14160156 27.68554688-2.76855468 1.97753906 0.39550781 3.55957031-0.39550781 4.35058594-2.37304688 0.39550781-1.97753906-0.39550781-3.55957031-2.37304688-4.35058594-10.28320313-2.76855469-21.75292969-1.97753906-32.03613281 2.76855469-1.58203125 0.79101563-2.37304688 2.37304688-1.97753906 3.95507813 0 1.97753906 1.18652344 3.1640625 2.76855468 3.1640625z m-18.19335937 34.01367187c-0.79101563-2.76855469-0.79101563-5.53710938-0.39550781-8.30566406l3.1640625-10.28320313c1.58203125-2.76855469 3.1640625-5.14160156 5.14160156-7.11914062 1.18652344-1.18652344 1.18652344-3.55957031 0-4.74609375s-3.55957031-1.18652344-4.74609375 0c-8.70117188 9.09667969-12.26074219 20.56640625-9.4921875 32.43164062 0.39550781 1.97753906 2.37304688 2.76855469 3.95507812 2.37304688 1.58203125-0.79101563 2.76855469-2.76855469 2.37304688-4.35058594z m0.79101562 11.86523438c-1.58203125 1.18652344-1.97753906 3.1640625-0.79101562 4.74609375 3.55957031 5.14160156 8.30566406 10.28320313 13.84277344 15.02929687 1.97753906 1.58203125 4.35058594 3.55957031 6.328125 5.14160156 1.58203125 1.18652344 3.55957031 0.79101563 4.74609375-0.79101562s0.79101563-3.55957031-0.79101563-4.74609375l-5.93261719-4.74609375c-5.14160156-4.35058594-9.4921875-9.09667969-12.65625-13.84277344-1.18652344-1.58203125-3.1640625-1.97753906-4.74609375-0.79101562z m52.99804688 38.36425781c1.58203125 0 3.1640625-1.18652344 3.1640625-3.1640625 0-1.58203125-1.18652344-3.1640625-2.76855469-3.55957031-6.72363281-0.79101563-13.05175781-3.1640625-19.77539062-6.328125-1.58203125-0.79101563-3.55957031 0-4.35058594 1.58203125s0 3.55957031 1.58203125 4.35058593c7.11914063 3.55957031 14.23828125 5.93261719 21.75292969 7.11914063h0.39550781z m25.3125-8.30566406c-1.18652344 0.39550781-2.76855469 0.79101563-3.95507813 1.18652343 2.37304688-7.91015625 3.95507813-16.21582031 4.74609375-24.12597656 0-0.79101563-0.39550781-1.58203125-0.79101562-2.37304687s-1.58203125-1.18652344-2.37304688-1.18652344c-1.97753906 0-3.55957031 1.18652344-3.55957031 3.1640625-0.79101563 8.70117188-2.37304688 17.40234375-5.53710937 25.70800781-1.18652344 0-2.76855469 0-3.95507813 0.39550781-1.97753906 0-3.1640625 1.58203125-3.1640625 3.1640625 0 1.97753906 1.58203125 3.1640625 3.55957031 3.1640625h1.18652344c-1.18652344 3.1640625-2.76855469 6.328125-4.35058594 9.4921875-0.79101563 1.58203125 0 3.55957031 1.58203125 4.35058594s3.55957031 0.39550781 4.35058594-1.18652344c2.37304688-4.35058594 4.35058594-8.70117188 5.93261719-13.05175781 2.76855469-0.39550781 5.53710938-1.18652344 8.30566406-1.97753906 1.97753906-0.39550781 2.76855469-2.37304688 2.37304688-3.95507813-0.39550781-2.37304688-2.37304688-3.55957031-4.35058594-2.76855468z m39.55078125-23.33496094C598.61621092 506.06738281 591.10156248 512 583.19140623 515.95507813c-1.58203125 0.79101563-2.37304688 2.76855469-1.18652344 4.74609374 0.79101563 1.58203125 2.76855469 2.37304688 4.74609375 1.18652344 7.91015625-4.35058594 16.21582031-10.28320313 24.52148438-17.40234375 0.79101563-0.79101563 1.18652344-1.97753906 1.18652344-3.1640625-0.39550781-1.18652344-1.18652344-2.37304688-2.37304688-2.37304687-1.58203125-0.79101563-2.76855469-0.39550781-3.55957031 0.39550781z m34.40917969-33.61816406c-0.79101563-0.39550781-1.58203125-0.79101563-2.37304688-0.79101563s-1.58203125 0.39550781-2.37304687 1.18652344c-5.53710938 7.51464844-11.46972656 14.63378906-17.40234375 20.56640625-1.18652344 1.18652344-1.18652344 3.55957031 0.39550781 4.74609375 1.18652344 1.18652344 3.55957031 1.18652344 4.74609375 0 5.93261719-6.328125 11.86523438-13.44726563 17.79785156-21.35742188 0.39550781-0.79101563 0.79101563-1.58203125 0.79101563-2.37304687-0.39550781-0.39550781-0.79101563-1.18652344-1.58203125-1.97753906z m27.68554687-43.11035157c-0.79101563-0.39550781-1.58203125-0.39550781-2.37304687-0.39550781-0.79101563 0.39550781-1.58203125 0.79101563-1.97753907 1.58203125-5.14160156 9.4921875-11.07421875 18.58886719-17.00683593 27.29003906-0.79101563 1.18652344-0.79101563 2.37304688-0.39550782 3.55957032s1.58203125 1.97753906 2.76855469 1.97753906 2.37304688-0.39550781 3.1640625-1.58203125c5.93261719-9.09667969 11.86523438-18.58886719 17.40234375-28.08105469 0.39550781-0.79101563 0.39550781-1.58203125 0.39550781-2.37304687-0.39550781-1.18652344-1.18652344-1.58203125-1.97753906-1.97753907zM689.97851561 379.50488281c-0.79101563-0.39550781-1.58203125-0.39550781-2.76855469 0-0.79101563 0.39550781-1.58203125 0.79101563-1.97753906 1.97753907 0 0-4.35058594 10.28320313-11.86523438 25.3125-0.79101563 1.58203125-0.39550781 3.55957031 1.58203125 4.35058593 1.58203125 0.79101563 3.55957031 0.39550781 4.35058594-1.58203125 7.91015625-15.02929688 12.26074219-25.3125 12.26074219-25.70800781 0.79101563-1.58203125 0-3.55957031-1.58203125-4.35058594z" fill="" p-id="1035"></path></svg>