<?xml version="1.0" standalone="no"?><!DOCTYPE svg PUBLIC "-//W3C//DTD SVG 1.1//EN" "http://www.w3.org/Graphics/SVG/1.1/DTD/svg11.dtd"><svg class="icon" width="200px" height="125.26px" viewBox="0 0 1635 1024" version="1.1" xmlns="http://www.w3.org/2000/svg"><path fill="#333333" d="M798.132 32c-267.445 0-480.002 212.558-480.002 479.999 0 267.445 212.558 480.002 480.002 480.002 267.444 0 479.999-212.558 479.999-480.002 0-267.441-212.558-479.999-479.999-479.999zM798.132 930.276c-226.277 0-418.293-192.014-418.293-418.297 0-226.277 185.153-418.249 418.293-418.249 233.14 0 418.293 191.972 418.293 418.249 0 226.283-192.014 418.297-418.293 418.297z"  /><path fill="#333333" d=""  /><path fill="#333333" d="M883.862 544.479h-80.422c-19.047 0-34.475-12.317-34.475-31.342l-2.277-261.365c0-19.024 12.477-34.433 31.524-34.433 19.043 0 31.524 15.409 31.524 34.433v229.839h183.212c19.103 0 34.503 12.502 34.503 31.524s-15.402 31.342-34.503 31.342h-129.087z"  /></svg>