<?xml version="1.0" standalone="no"?><!DOCTYPE svg PUBLIC "-//W3C//DTD SVG 1.1//EN" "http://www.w3.org/Graphics/SVG/1.1/DTD/svg11.dtd"><svg t="1530789653366" class="icon" style="" viewBox="0 0 1024 1024" version="1.1" xmlns="http://www.w3.org/2000/svg" p-id="1981" xmlns:xlink="http://www.w3.org/1999/xlink" width="200" height="200"><defs><style type="text/css"></style></defs><path d="M420.752 912h182.496l-23.28-128h-135.936l-23.28 128z m199.28-176l40.72 224H363.248l40.72-224h216.064z" p-id="1982"></path><path d="M285.264 960H738.72c11.744 0 21.264-10.752 21.264-24s-9.52-24-21.264-24H285.28c-11.744 0-21.264 10.752-21.264 24s9.52 24 21.264 24zM48 656h928v-48H48z" p-id="1983"></path><path d="M0 136A72 72 0 0 1 72 64h880A72 72 0 0 1 1024 136v576a72 72 0 0 1-72 72h-880A72 72 0 0 1 0 712v-576z m48 0v576A24 24 0 0 0 72 736h880a24 24 0 0 0 24-24v-576A24 24 0 0 0 952 112h-880A24 24 0 0 0 48 136z" p-id="1984"></path></svg>