<?xml version="1.0" standalone="no"?><!DOCTYPE svg PUBLIC "-//W3C//DTD SVG 1.1//EN" "http://www.w3.org/Graphics/SVG/1.1/DTD/svg11.dtd"><svg t="1530164289958" class="icon" style="" viewBox="0 0 1024 1024" version="1.1" xmlns="http://www.w3.org/2000/svg" p-id="4585" xmlns:xlink="http://www.w3.org/1999/xlink" width="200" height="200"><defs><style type="text/css"></style></defs><path d="M861.658508 1024c-44.589371 0-82.808832-19.10973-114.658382-44.589371l-203.837124-203.837124c-146.507933 57.329191-312.125597 25.479641-420.414069-89.178742C1.72064 565.36647-30.128911 393.378896 33.570191 240.501053c6.36991-12.73982 12.73982-19.10973 25.47964-19.10973s19.10973 0 25.479641 6.36991L256.517045 399.748807 396.655068 259.610784 224.667495 93.99312c-6.36991-12.73982-6.36991-19.10973-6.36991-31.849551s6.36991-19.10973 19.10973-25.47964c152.877843-70.069012 324.865417-38.219461 445.89371 82.808832 76.438922 76.438922 121.028293 184.727394 114.658382 293.015866 0 19.10973-12.73982 31.849551-31.849551 31.849551s-31.849551-12.73982-31.84955-31.849551c0-89.178742-31.849551-178.357484-101.918562-248.426495C549.532912 81.2533 422.134709 49.403749 307.476327 81.2533l159.247753 159.247753c12.73982 12.73982 12.73982 31.849551 0 44.589371L281.996686 469.817818c-12.73982 12.73982-31.849551 12.73982-44.589371 0L78.159562 310.570065c-31.849551 114.658382 0 242.056585 82.808831 324.865417 95.548652 95.548652 242.056585 127.398203 369.454788 70.069011 12.73982-6.36991 25.479641 0 38.219461 6.36991l216.576945 216.576945c38.219461 38.219461 101.918562 38.219461 140.138023 0s38.219461-101.918562 0-140.138023l-216.576945-216.576945c-12.73982-12.73982-12.73982-31.849551 0-44.589371s31.849551-12.73982 44.589371 0l216.576945 216.576945c63.699101 63.699101 63.699101 165.617664 0 229.316765-25.479641 31.849551-70.069012 50.959281-108.288473 50.959281z" fill="" p-id="4586"></path></svg>