<?xml version="1.0" standalone="no"?><!DOCTYPE svg PUBLIC "-//W3C//DTD SVG 1.1//EN" "http://www.w3.org/Graphics/SVG/1.1/DTD/svg11.dtd"><svg class="icon" width="200px" height="200.00px" viewBox="0 0 1024 1024" version="1.1" xmlns="http://www.w3.org/2000/svg"><path fill="#112079" d="M91.774201 512.410227v408.958554a80.628159 80.628159 0 0 0 5.146478 29.014204c5.071892 12.828902 16.334474 17.527861 30.282176 17.453274H689.436958a27.820817 27.820817 0 0 1 27.447884 27.149537 28.715857 28.715857 0 0 1-27.29871 28.790444H125.412776A88.758103 88.758103 0 0 1 36.729259 947.250346a187.361643 187.361643 0 0 1-1.939252-26.851191V103.600845C34.790007 74.064535 41.428218 47.064171 62.983757 25.359458a80.553573 80.553573 0 0 1 59.669313-24.986525c238.677253 0 477.354505 0.67128 716.031758-0.372933a90.846529 90.846529 0 0 1 90.846529 88.683517c1.267973 38.85964 0.372933 77.793867 0.44752 116.653507v241.959065c0 16.259888-7.980771 27.671644-21.10802 30.655109a27.820817 27.820817 0 0 1-34.981135-28.41751V298.570326 101.587006a74.586641 74.586641 0 0 0-4.176851-25.061112 29.014204 29.014204 0 0 0-29.834657-20.21298H125.636536a32.519776 32.519776 0 0 0-33.265642 30.953456 156.631947 156.631947 0 0 0-0.596693 18.199141V512.410227z"  /><path fill="#112079" d="M896.265715 747.358147H535.93765c-18.199141-0.820453-28.268337-10.367543-28.19375-26.552844s10.66589-26.179911 28.566683-26.254498h362.491078c-4.251439-4.549785-6.712798-7.458664-9.32333-10.069197q-60.937286-60.937286-121.799986-121.874572c-13.201836-13.201836-12.978076-28.790444 0-39.97844a24.688178 24.688178 0 0 1 32.370602-0.522106c3.281812 2.685119 6.265278 5.817758 9.323331 8.801224l167.22325 167.297836c16.781994 16.856581 16.856581 28.64127 0 45.423265q-85.849224 85.923811-171.549276 171.549275c-16.931168 17.154928-39.30716 12.306796-45.796197-9.09957-3.654745-11.859276 2.013839-20.585913 9.99461-28.566684l119.338626-119.338626c2.759706-2.759706 6.041518-4.997305 9.09957-7.458664zM482.309855 221.000219h252.848714c18.497487 0 30.505936 7.458664 35.876175 21.406366a32.221429 32.221429 0 0 1-20.88426 42.663558 70.558963 70.558963 0 0 1-19.019593 2.163013H234.682206a83.686212 83.686212 0 0 1-14.917329-0.820453 32.445189 32.445189 0 0 1-27.895404-33.862335 32.967296 32.967296 0 0 1 31.77391-31.550149h9.621676zM414.808945 544.482482H224.240076a32.370602 32.370602 0 0 1-3.654746-64.517444H601.648481c22.375992 0 36.398281 11.933863 36.920388 31.251802A31.550149 31.550149 0 0 1 606.422026 544.482482H414.808945zM273.467259 737.06519h45.945371a32.892709 32.892709 0 1 1 0.745867 65.785418q-47.511691 0.745866-95.023382 0a32.892709 32.892709 0 1 1 1.34256-65.785418c15.812368-0.149173 31.475563 0 46.989584 0z"  /></svg>