<?xml version="1.0" standalone="no"?><!DOCTYPE svg PUBLIC "-//W3C//DTD SVG 1.1//EN" "http://www.w3.org/Graphics/SVG/1.1/DTD/svg11.dtd"><svg t="1524191127315" class="icon" style="" viewBox="0 0 1024 1024" version="1.1" xmlns="http://www.w3.org/2000/svg" p-id="4041" xmlns:xlink="http://www.w3.org/1999/xlink" width="200" height="200"><defs><style type="text/css"></style></defs><path d="M781.418667 953.258667H241.386667a106.517333 106.517333 0 0 1-106.410667-106.389334V500.928a106.538667 106.538667 0 0 1 106.410667-106.410667h540.032a106.517333 106.517333 0 0 1 106.410666 106.410667v345.92a106.538667 106.538667 0 0 1-106.410666 106.410667zM241.386667 437.184a63.808 63.808 0 0 0-63.744 63.744v345.92a63.786667 63.786667 0 0 0 63.744 63.722667h540.032a63.808 63.808 0 0 0 63.744-63.722667V500.928a63.829333 63.829333 0 0 0-63.744-63.744H241.386667z" p-id="4042"></path><path d="M341.589333 433.301333a21.333333 21.333333 0 0 1-21.333333-21.333333v-114.304c0-118.741333 85.76-215.338667 191.168-215.338667 73.621333 0 141.482667 48.426667 172.885333 123.328a21.333333 21.333333 0 1 1-39.338666 16.490667c-24.746667-59.029333-77.184-97.173333-133.568-97.173333-81.877333 0-148.501333 77.461333-148.501334 172.672v114.304a21.333333 21.333333 0 0 1-21.312 21.354666z" p-id="4043"></path><path d="M511.402667 622.549333m-42.666667 0a42.666667 42.666667 0 1 0 85.333333 0 42.666667 42.666667 0 1 0-85.333333 0Z" p-id="4044"></path><path d="M511.402667 791.104a21.333333 21.333333 0 0 1-21.333334-21.333333v-110.293334a21.333333 21.333333 0 1 1 42.666667 0v110.293334a21.333333 21.333333 0 0 1-21.333333 21.333333z" p-id="4045"></path><path d="M678.485333 307.562667m-32 0a32 32 0 1 0 64 0 32 32 0 1 0-64 0Z" p-id="4046"></path></svg>