<?xml version="1.0" standalone="no"?><!DOCTYPE svg PUBLIC "-//W3C//DTD SVG 1.1//EN" "http://www.w3.org/Graphics/SVG/1.1/DTD/svg11.dtd"><svg t="1530165929936" class="icon" style="" viewBox="0 0 1098 1024" version="1.1" xmlns="http://www.w3.org/2000/svg" p-id="2701" xmlns:xlink="http://www.w3.org/1999/xlink" width="214.453125" height="200"><defs><style type="text/css"></style></defs><path d="M96.488631 445.414631l450.272549 431.639078 450.275887-431.639078c18.377609-18.366484 55.121702-18.366484 82.699239 0 18.377609 18.366484 27.571975 55.101678 0 82.654741L565.142126 1014.80679l0 0c-9.188804 9.188804-9.188804 9.188804-18.379834 9.188804s-18.379834 0-18.379834-9.188804l0 0L13.781605 528.069372c-18.374271-18.366484-18.374271-55.105015 0-82.654741C32.161438 427.048147 68.916656 427.048147 96.488631 445.414631zM565.142126 592.356517 565.142126 592.356517c0 9.17768-9.188804 9.17768-18.379834 9.17768s-18.379834 0-18.379834-9.17768l0 0L13.781605 96.432519c-18.374271-18.368709-18.374271-55.105015 0-82.654741 18.379834-18.368709 55.135051-18.368709 82.707026 0l450.272549 440.820095L997.037067 22.96102c18.377609-18.366484 55.121702-18.366484 82.699239 0 18.377609 18.366484 27.571975 55.101678 0 82.656966L565.142126 592.356517z" p-id="2702"></path></svg>