<?xml version="1.0" standalone="no"?><!DOCTYPE svg PUBLIC "-//W3C//DTD SVG 1.1//EN" "http://www.w3.org/Graphics/SVG/1.1/DTD/svg11.dtd"><svg class="icon" width="200px" height="200.00px" viewBox="0 0 1024 1024" version="1.1" xmlns="http://www.w3.org/2000/svg"><path fill="#bfbfbf" d="M511.7312 1021.8752C230.4384 1021.8752 1.6 793.024 1.6 511.744 1.6 230.464 230.4512 1.6128 511.7312 1.6128S1021.8624 230.464 1021.8624 511.744a25.536 25.536 0 1 1-51.0976 0c0-253.1072-205.9136-459.0336-459.0336-459.0336-253.1072 0-459.0464 205.9264-459.0464 459.0336 0 253.12 205.9264 459.0336 459.0464 459.0336 14.1184 0 25.5488 11.4688 25.5488 25.5616a25.5232 25.5232 0 0 1-25.5488 25.536zM988.7488 670.9632a52.1984 52.1984 0 0 0-73.8688 0L638.6688 948.6208l0.2432 0.9216v72.32h73.408l276.4416-277.0688a52.1856 52.1856 0 0 0-0.0128-73.8304z"  /><path fill="#fff" d="M553.9712 417.536c-2.4832 2.9696-5.4656 5.952-8.4352 8.9344 44.1728 38.72 124.5952 72 200.5504 87.36-11.9168 10.9312-27.3024 32.2688-35.2384 46.6688-33.2672-8.4224-67.0208-21.3504-98.304-36.7488v32.7936h-204.032v-31.2832a836.864 836.864 0 0 1-95.3088 39.2064c-7.4496-14.3872-20.8512-33.2544-33.7536-46.144 85.376-23.3472 178.7136-67.52 227.8528-124.1216l25.8048 12.9024c-12.4032-8.4352-28.7872-19.3664-39.2064-25.3184l0.4992-0.512h-56.5888c8.9216 15.3984 16.8704 30.784 20.352 43.2l-52.6208 14.8992c-4.4672-14.8992-14.8992-38.2336-25.8176-58.0992h-5.952c-14.8992 25.8176-30.2848 49.6512-46.1696 67.5328-10.9184-8.9472-34.752-23.8336-48.64-30.784 30.7712-30.7712 59.072-79.424 74.4576-127.0912l55.104 14.4a455.3088 455.3088 0 0 1-11.9168 29.2864H504.32v37.2352c21.3504-21.3376 38.72-51.136 49.152-80.9216l55.6032 13.9008a257.024 257.024 0 0 1-12.9024 29.7856h135.0272v46.656h-72.9856c11.4304 15.8848 22.3488 33.2672 28.3008 46.1824l-56.5888 11.9168c-5.9648-15.4112-19.3536-38.7328-33.2672-58.0992h-28.288a197.8112 197.8112 0 0 1-25.3312 30.784l10.9312 5.4784z m128.5632 164.3264a1000.4864 1000.4864 0 0 1-51.1232 112.6784h97.792v52.1216H298.3168v-52.1216h269.568c23.8208-35.2512 46.6688-84.3904 61.568-127.5776l53.0816 14.8992z m-288.4096-9.9328c18.368 25.8048 41.2032 61.056 50.1376 84.3776l-50.1376 23.8208c-8.4352-22.8096-29.2992-60.0448-47.1552-87.36l47.1552-20.8384z m189.632-64.0512c-25.8304-15.3856-49.6512-32.2688-70.0032-51.6352-21.8368 19.3664-47.1552 36.2496-73.472 51.6352h143.4752z m-67.52 56.5888c16.3968 27.8016 35.7504 67.0208 43.2 91.3408l-49.6384 19.8528c-6.464-23.808-24.32-64.0256-39.7312-93.7856l46.1696-17.408z"  /></svg>