<?xml version="1.0" standalone="no"?><!DOCTYPE svg PUBLIC "-//W3C//DTD SVG 1.1//EN" "http://www.w3.org/Graphics/SVG/1.1/DTD/svg11.dtd"><svg t="1528879631654" class="icon" style="" viewBox="0 0 1024 1024" version="1.1" xmlns="http://www.w3.org/2000/svg" p-id="1957" xmlns:xlink="http://www.w3.org/1999/xlink" width="200" height="200"><defs><style type="text/css"></style></defs><path d="M912.471104 743.20534c-20.263469 35.313203-44.98752 67.404021-73.386258 95.808898-28.404877 28.398737-60.649191 53.121765-95.808898 73.386258-110.697973 63.870552-236.598153 76.924843-350.983091 46.367957-114.232466-30.707311-216.948667-104.864116-280.665723-215.563113-63.870552-110.544478-76.925866-236.598153-46.367958-350.830619 30.706288-114.384938 104.864116-216.948667 215.56209-280.818195C391.36779 47.685974 517.426582 34.631682 631.652908 65.342063 746.036823 95.893832 848.600552 170.20618 912.471104 280.904153c20.422081 35.158684 35.931279 72.623896 46.214462 111.470568 10.440772 38.68806 15.815166 78.914146 15.815166 119.605836h-40.532055c0-36.851229-4.91493-73.544869-14.430635-109.169157-9.521845-35.620194-23.649582-69.858928-42.072127-101.791134-58.189167-100.8763-151.845033-168.587313-256.249686-196.530679-104.25525-27.939273-219.254171-16.11704-320.125355 42.072127-100.875277 58.189167-168.738762 151.845033-196.678035 256.249686-27.945413 104.25525-16.122157 219.254171 42.22153 320.124332 58.188144 100.875277 151.845033 168.586289 256.253779 196.684174 104.251157 27.939273 219.249055 16.11704 320.119215-42.226645 31.938346-18.423568 61.263173-40.994588 87.366639-67.09703 26.099372-25.944853 48.669369-55.423176 67.091913-87.360499l35.005189 20.269608z" p-id="1958"></path><path d="M918.770564 881.847704l-33.624751-137.26295-133.119591 5.374394-1.534956-40.379582 149.544646-6.141872 16.583667-0.611936 3.839437 16.122157 37.612567 153.377943zM383.693009 370.417684h268.536499c16.122157 0 30.705264 6.447839 41.299532 17.043131s17.196626 25.330871 17.196627 41.454051V677.181756c0 15.968661-6.601335 30.711404-17.196627 41.299533-10.595291 10.595291-25.177375 17.201743-41.299532 17.201743H383.693009c-16.12318 0-30.705264-6.606452-41.300556-17.201743-10.595291-10.589151-17.195603-25.330871-17.195603-41.299533V428.914866c0-16.12318 6.600312-30.85876 17.195603-41.454051 10.595291-10.594268 25.177375-17.043131 41.300556-17.043131z m268.535476 40.534101h-268.535476a17.738977 17.738977 0 0 0-12.589711 5.220898c-3.379974 3.374857-5.374393 7.828277-5.374394 12.742183V677.181756c0 4.913907 1.99442 9.367326 5.374394 12.588688a17.737954 17.737954 0 0 0 12.589711 5.221921h268.536499a17.733861 17.733861 0 0 0 12.588688-5.221921c3.380997-3.220338 5.374393-7.674781 5.374393-12.588688V428.914866c0-4.913907-1.993396-9.367326-5.374393-12.742183a17.738977 17.738977 0 0 0-12.589711-5.220898z" p-id="1959"></path><path d="M406.415477 390.682176v-94.729312c0-17.962058 6.448863-34.392229 16.73614-46.52043 11.20825-13.054291 26.716425-21.036063 44.066547-21.036064h101.484142c17.349099 0 32.857273 7.981772 44.066547 21.036064 10.287277 12.128201 16.735116 28.558372 16.735116 46.52043v94.729312h-40.532054v-94.729312c0-7.986889-2.613519-15.201183-7.061822-20.268585-3.532446-4.141312-8.292857-6.754831-13.206763-6.754831h-101.484143c-4.913907 0-9.674317 2.613519-13.201647 6.754831-4.455466 5.067402-7.066938 12.281696-7.066938 20.268585v94.729312H406.415477zM538.30301 492.171435c0-11.20825-9.208714-20.423104-20.416965-20.423104s-20.269609 9.214854-20.269608 20.423104v121.753752c0 11.20825 9.060335 20.269609 20.269608 20.269609s20.416964-9.060335 20.416965-20.269609V492.171435z" p-id="1960"></path></svg>