<?xml version="1.0" standalone="no"?><!DOCTYPE svg PUBLIC "-//W3C//DTD SVG 1.1//EN" "http://www.w3.org/Graphics/SVG/1.1/DTD/svg11.dtd"><svg t="1528436493956" class="icon" style="" viewBox="0 0 1024 1024" version="1.1" xmlns="http://www.w3.org/2000/svg" p-id="1410" xmlns:xlink="http://www.w3.org/1999/xlink" width="200" height="200"><defs><style type="text/css"></style></defs><path d="M806.647717 880.528378 657.863089 880.528378l0 0 74.392314 0 0 74.392314L434.68717 954.920692l0-74.392314 74.392314 0 0 0L360.294856 880.528378c-82.173534 0-148.784628-66.611094-148.784628-148.784628L211.510228 582.959122l148.784628 0 0 148.784628 446.352861 0L806.647717 359.783203 583.471798 359.783203 583.471798 210.998575l223.176942 0c82.173534 0 148.784628 66.611094 148.784628 148.784628l0 371.960547C955.432345 813.917284 888.821251 880.528378 806.647717 880.528378zM360.294856 508.566808 211.510228 508.566808 211.510228 359.783203 62.726623 359.783203 62.726623 210.998575l148.784628 0L211.511251 62.213947l148.784628 0L360.295879 210.998575l148.784628 0 0 148.784628L360.294856 359.783203 360.294856 508.566808z" p-id="1411"></path></svg>