<?xml version="1.0" standalone="no"?><!DOCTYPE svg PUBLIC "-//W3C//DTD SVG 1.1//EN" "http://www.w3.org/Graphics/SVG/1.1/DTD/svg11.dtd"><svg t="1530153797286" class="icon" style="" viewBox="0 0 1024 1024" version="1.1" xmlns="http://www.w3.org/2000/svg" p-id="27691" xmlns:xlink="http://www.w3.org/1999/xlink" width="200" height="200"><defs><style type="text/css"></style></defs><path d="M508.237 375.309c71.835 0 130.293 58.459 130.293 130.293s-58.459 130.293-130.293 130.293-130.293-58.459-130.293-130.293 58.459-130.293 130.293-130.293m0-57.908c-103.946 0-188.202 84.256-188.202 188.202s84.256 188.202 188.202 188.202 188.202-84.256 188.202-188.202-84.256-188.202-188.202-188.202m465.265 303.104c8.275-35.287 12.492-71.623 12.492-108.503 0-36.88-4.217-73.215-12.492-108.503-3.652-15.577-19.241-25.242-34.816-21.588-15.575 3.652-25.242 19.241-21.588 34.816 7.26 30.959 10.961 62.855 10.961 95.276s-3.701 64.317-10.961 95.276c-3.652 15.575 6.013 31.164 21.588 34.816 15.575 3.652 31.164-6.013 34.816-21.588z m-34.225 22.237c1.833 0 3.365 0.028 4.764 0.089 15.983 0.695 29.504-11.699 30.198-27.682 0.695-15.983-11.699-29.504-27.682-30.198a165.37 165.37 0 0 0-7.281-0.143c-15.999 0-28.967 12.97-28.967 28.967 0 15.998 12.969 28.967 28.967 28.967z m-94.58 174.266c-11.826-18.164-18.211-39.327-18.211-61.474 0-62.293 50.498-112.791 112.791-112.791 15.998 0 28.967-12.97 28.967-28.967 0-15.998-12.97-28.967-28.967-28.967-94.29 0-170.726 76.436-170.726 170.726 0 33.461 9.694 65.588 27.594 93.084 8.729 13.407 26.674 17.2 40.081 8.471 13.407-8.729 17.2-26.673 8.471-40.081z m-196.039 148.97c72.081-21.649 137.756-60.26 191.843-112.288 11.53-11.091 11.886-29.429 0.795-40.959s-29.429-11.886-40.959-0.795c-47.493 45.685-105.126 79.568-168.345 98.556-15.323 4.602-24.013 20.754-19.411 36.076s20.754 24.013 36.076 19.411z m-238.741-15.412c18.462-39.237 57.954-64.813 102.084-64.813 44.138 0 83.654 25.583 102.113 64.813 6.811 14.476 24.068 20.69 38.544 13.878 14.476-6.812 20.69-24.068 13.878-38.544-27.927-59.356-87.747-98.083-154.535-98.083-66.784 0-126.577 38.722-154.507 98.083-6.811 14.476-0.597 31.733 13.878 38.544 14.476 6.811 31.733 0.597 38.544-13.878zM184.8 854.928c53.855 51.39 119.056 89.549 190.565 111.047 15.321 4.606 31.475-4.08 36.081-19.401 4.606-15.321-4.08-31.475-19.401-36.081-62.731-18.859-119.955-52.351-167.249-97.479-11.574-11.044-29.91-10.615-40.956 0.959s-10.615 29.91 0.959 40.956zM86.694 642.742c62.293 0 112.791 50.498 112.791 112.791 0 22.531-6.606 44.044-18.81 62.397-8.859 13.323-5.239 31.303 8.082 40.161 13.323 8.859 31.303 5.241 40.161-8.082 18.475-27.783 28.501-60.438 28.501-94.477 0-94.29-76.436-170.726-170.726-170.726-15.999 0-28.967 12.97-28.967 28.967 0 15.998 12.97 28.967 28.967 28.967z m-6.372 0.159c1.953-0.108 4.063-0.159 6.373-0.159 15.999 0 28.967-12.97 28.967-28.967 0-15.998-12.97-28.967-28.967-28.967-3.321 0-6.478 0.078-9.552 0.246-15.974 0.878-28.212 14.539-27.334 30.513 0.878 15.974 14.539 28.212 30.513 27.334zM50.528 403.417c-8.288 35.374-12.519 71.734-12.519 108.585s4.23 73.211 12.519 108.585c3.65 15.577 19.235 25.245 34.812 21.596 15.577-3.65 25.245-19.236 21.596-34.812-7.277-31.056-10.992-62.982-10.992-95.367 0-32.385 3.715-64.311 10.992-95.367 3.65-15.577-6.019-31.163-21.596-34.812-15.577-3.65-31.163 6.019-34.812 21.596z m36.166-22.157c-2.31 0-4.42-0.052-6.373-0.159-15.974-0.878-29.635 11.361-30.513 27.334-0.878 15.974 11.361 29.635 27.334 30.513 3.073 0.169 6.231 0.246 9.552 0.246 15.999 0 28.967-12.97 28.967-28.967 0-15.998-12.97-28.967-28.967-28.967z m93.982-175.189c12.205 18.355 18.81 39.869 18.81 62.426 0 62.286-50.491 112.763-112.791 112.763-15.999 0-28.967 12.97-28.967 28.967 0 15.999 12.97 28.967 28.967 28.967 94.294 0 170.726-76.412 170.726-170.698 0-34.062-10.025-66.719-28.501-94.506-8.859-13.323-26.839-16.941-40.161-8.082s-16.941 26.839-8.082 40.161zM375.365 58.027c-71.509 21.499-136.71 59.658-190.565 111.047-11.574 11.044-12.004 29.381-0.959 40.956 11.044 11.574 29.381 12.004 40.956 0.959 47.294-45.13 104.519-78.621 167.249-97.479 15.321-4.606 24.007-20.761 19.401-36.081-4.606-15.321-20.761-24.007-36.081-19.401z m238.749 15.409c-18.457 39.227-57.972 64.813-102.084 64.813-44.156 0-83.65-25.572-102.113-64.813-6.811-14.476-24.068-20.69-38.544-13.878-14.476 6.811-20.69 24.068-13.878 38.544 27.932 59.364 87.728 98.083 154.535 98.083 66.764 0 126.581-38.732 154.507-98.083 6.811-14.476 0.597-31.733-13.878-38.544-14.476-6.812-31.733-0.597-38.544 13.878z m226.382 96.871c-54.085-51.995-119.755-90.603-191.827-112.279-15.321-4.608-31.475 4.077-36.083 19.397s4.077 31.475 19.397 36.083c63.225 19.015 120.864 52.902 168.362 98.564 11.533 11.088 29.871 10.726 40.959-0.807s10.726-29.871-0.807-40.959z m98.781 210.953c-62.301 0-112.791-50.477-112.791-112.763 0-22.173 6.384-43.335 18.211-61.503 8.729-13.407 4.935-31.353-8.471-40.081-13.407-8.729-31.353-4.935-40.081 8.471-17.903 27.499-27.594 59.627-27.594 93.113 0 94.287 76.433 170.698 170.726 170.698 15.998 0 28.967-12.97 28.967-28.967 0-15.999-12.97-28.967-28.967-28.967z m4.764-0.089a109 109 0 0 1-4.764 0.089c-15.999 0-28.967 12.97-28.967 28.967 0 15.999 12.97 28.967 28.967 28.967 2.615 0 4.963-0.043 7.281-0.143 15.983-0.695 28.378-14.215 27.682-30.198-0.694-15.984-14.215-28.378-30.198-27.682z" p-id="27692"></path></svg>