<?xml version="1.0" standalone="no"?><!DOCTYPE svg PUBLIC "-//W3C//DTD SVG 1.1//EN" "http://www.w3.org/Graphics/SVG/1.1/DTD/svg11.dtd"><svg t="1553065097523" class="icon" style="" viewBox="0 0 1024 1024" version="1.1" xmlns="http://www.w3.org/2000/svg" p-id="7568" xmlns:xlink="http://www.w3.org/1999/xlink" width="32" height="32"><defs><style type="text/css"></style></defs><path d="M416.789545 247.556189l183.984315 0c108.208491 0 171.059957 92.418876 196.629309 196.629309l60.439534 245.916852c25.675776 104.477516-69.433372 216.269625-176.962388 216.269625L336.722998 906.371976c-107.529015 0-202.825428-111.258966-176.988993-216.269625l60.426231-245.916852C245.99667 339.148233 308.621986 247.556189 416.789545 247.556189L416.789545 247.556189zM506.98273 616.07024 688.556135 616.07024c13.218046 0 23.984251-10.766205 23.984251-23.984251 0-13.218046-10.766205-23.984251-23.984251-23.984251L546.530444 568.101739 546.530444 464.357933c0-20.852934-16.922415-37.775348-37.762045-37.775348-20.852934 0-37.775348 16.922415-37.775348 37.775348l0 112.617917c0 14.856359 8.647961 27.728528 21.118993 33.883715C496.189919 614.151541 501.360685 616.07024 506.98273 616.07024z" p-id="7569" fill="#8a8a8a"></path><path d="M470.994074 228.78159c0-20.852934 16.922415-37.775348 37.775348-37.775348 20.839631 0 37.762045 16.922415 37.762045 37.775348l0 148.808164c0 20.852934-16.922415 37.775348-37.762045 37.775348-20.852934 0-37.775348-16.922415-37.775348-37.775348L470.994074 228.78159z" p-id="7570" fill="#8a8a8a"></path><path d="M911.208121 326.410118c11.899004 23.570835 2.411933 52.392254-21.158902 64.290235-23.557532 11.899004-52.378951 2.411933-64.276932-21.145599-14.390755-28.447912-32.298614-54.884005-52.91107-78.534658-20.852934-23.864524-44.729737-45.249577-70.819952-63.291488-21.718651-15.003715-27.195386-44.797275-12.204973-66.515926 14.990413-21.718651 44.797275-27.195386 66.515926-12.204973 32.67212 22.585391 62.424748 49.260937 88.488357 79.094406C870.861204 257.895675 893.25933 290.99349 911.208121 326.410118z" p-id="7571" fill="#8a8a8a"></path><path d="M198.175525 369.554754c-11.885701 23.557532-40.706097 33.044604-64.276932 21.145599-23.570835-11.899004-33.044604-40.7194-21.158902-64.290235 17.947767-35.416628 40.346917-68.514443 66.369593-98.308003 26.062586-29.833469 55.82954-56.509015 88.487334-79.094406 21.718651-14.990413 51.525514-9.513678 66.515926 12.204973 15.003715 21.718651 9.526981 51.512211-12.19167 66.515926-26.102495 18.040888-49.980321 39.426965-70.819952 63.291488C230.474139 314.670749 212.565257 341.106842 198.175525 369.554754z" p-id="7572" fill="#8a8a8a"></path></svg>