<?xml version="1.0" standalone="no"?><!DOCTYPE svg PUBLIC "-//W3C//DTD SVG 1.1//EN" "http://www.w3.org/Graphics/SVG/1.1/DTD/svg11.dtd"><svg class="icon" width="200px" height="200.00px" viewBox="0 0 1024 1024" version="1.1" xmlns="http://www.w3.org/2000/svg"><path fill="#333333" d="M245.641885 249.836h169.033V563.2h194.643V249.836h169.033L511.996885 0 245.641885 249.836z m696.91 494.725L795.786885 634.88h-90.504l156.758 133.56H698.636885a12.363 12.363 0 0 0-11.037 6.8l-37.672 114.442h-275.88L336.374885 775.24a12.353 12.353 0 0 0-11.037-6.8H161.932885l156.776-133.56h-90.521L81.442885 744.56C59.599885 759.05 46.544885 792.444 52.399885 818.76l25.88 157.378C84.152885 1002.455 110.116885 1024 135.979885 1024h752.054c25.863 0 51.826-21.545 57.7-47.862l25.861-157.378c5.873-26.327-7.2-59.71-29.043-74.2z" /></svg>