<?xml version="1.0" standalone="no"?><!DOCTYPE svg PUBLIC "-//W3C//DTD SVG 1.1//EN" "http://www.w3.org/Graphics/SVG/1.1/DTD/svg11.dtd"><svg t="1539140210524" class="icon" style="" viewBox="0 0 1024 1024" version="1.1" xmlns="http://www.w3.org/2000/svg" p-id="2463" xmlns:xlink="http://www.w3.org/1999/xlink" width="300" height="300"><defs><style type="text/css"></style></defs><path d="M514.8243661 572.51236041c-53.37327719 0-103.63250972-20.78443765-141.36314394-58.58749151-37.73063422-37.73063422-58.58749151-87.98986673-58.5874915-141.36314393s20.78443765-103.56009007 58.58749151-141.29072427C411.19185638 193.46794684 461.37866926 172.68350919 514.8243661 172.68350919c53.37327719 0 103.63250972 20.78443765 141.3631439 58.58749151C693.91814423 269.00163492 714.77500153 319.18844778 714.77500153 372.63414461s-20.78443765 103.63250972-58.58749152 141.36314393c-37.80305386 37.73063422-87.98986673 58.51507187-141.36314391 58.51507186z m0-370.86099386c-94.29037571 0-170.98277808 76.69240237-170.98277808 170.98277807s76.69240237 170.98277808 170.98277808 170.98277807C609.04232217 543.54450306 685.80714417 466.85210069 685.80714417 372.63414461S609.04232217 201.65136655 514.8243661 201.65136655z" fill="#ffffff" p-id="2464"></path><path d="M868.52190447 896.87994321h-28.96785736c0-178.87651921-145.70832253-324.72968101-324.72968101-324.72968102C335.73058797 572.15026219 190.02226543 718.003424 190.02226543 896.87994321h-28.96785735c0-47.79696465 9.34213401-94.00069714 27.80914306-137.59732247 17.81523228-42.14823247 43.30694676-79.87886668 75.82336664-112.39528655 32.51641989-32.51641989 70.31947375-57.93571472 112.4677062-75.750947 43.59662532-18.46700907 89.9451971-27.80914307 137.66974212-27.80914307 47.72454501 0 94.07311678 9.34213401 137.6697421 27.80914307 42.14823247 17.81523228 79.95128632 43.30694676 112.46770621 75.82336665 32.51641989 32.51641989 58.00813437 70.2470541 75.82336664 112.3228669 18.39458943 43.59662532 27.73672343 89.80035782 27.73672342 137.59732247z" fill="#ffffff" p-id="2465"></path></svg>