<?xml version="1.0" standalone="no"?><!DOCTYPE svg PUBLIC "-//W3C//DTD SVG 1.1//EN" "http://www.w3.org/Graphics/SVG/1.1/DTD/svg11.dtd"><svg t="1547003912953" class="icon" style="" viewBox="0 0 1024 1024" version="1.1" xmlns="http://www.w3.org/2000/svg" p-id="2070" xmlns:xlink="http://www.w3.org/1999/xlink" width="200" height="200"><defs><style type="text/css"></style></defs><path d="M539.449677 366.923834c57.350173 0 103.765295-46.475498 103.765295-103.766318 0-57.350173-46.415123-103.824647-103.765295-103.824647-57.350173 0-103.765295 46.475498-103.765295 103.824647C435.684382 320.449359 482.099505 366.923834 539.449677 366.923834z" p-id="2071"></path><path d="M338.931804 827.331805l304.284191 0L643.215996 520.075933l108.22384 307.254849 45.046962 0L643.750161 393.72627l-0.534166 0.178055 0-0.178055L592.579735 393.72627l-98.892311 0-55.269791 0c-83.617419-9.806343-161.947416-68.166519-197.546192-158.50092-20.682042-52.358485-22.7614-106.499569-11.053754-155.647943l-36.549427 3.505847 0 0-20.265556 1.902326 0.118704-38.392402-54.794977-0.237407-0.474814 114.700345 54.793954 0.237407 0.119727-33.518395 16.105816-1.485841c-1.248434 39.759539 5.28947 81.003895 21.097504 121.119545 26.26827 66.799382 73.396637 117.851105 128.96421 149.467173L338.932828 827.331805z" p-id="2072"></path><path d="M336.375585 835.116095l483.585857 0 0 73.040527-483.585857 0 0-73.040527Z" p-id="2073"></path></svg>