<?xml version="1.0" standalone="no"?><!DOCTYPE svg PUBLIC "-//W3C//DTD SVG 1.1//EN" "http://www.w3.org/Graphics/SVG/1.1/DTD/svg11.dtd"><svg t="1525676422402" class="icon" style="" viewBox="0 0 1024 1024" version="1.1" xmlns="http://www.w3.org/2000/svg" p-id="4810" xmlns:xlink="http://www.w3.org/1999/xlink" width="200" height="200"><defs><style type="text/css"></style></defs><path d="M680.937109 457.145671l111.284549 0 0 111.284549-111.284549 0 0-111.284549Z" p-id="4811"></path><path d="M235.798912 234.576573l111.284549 0 0 111.284549-111.284549 0 0-111.284549Z" p-id="4812"></path><path d="M402.725736 234.576573l111.284549 0 0 111.284549-111.284549 0 0-111.284549Z" p-id="4813"></path><path d="M235.798912 457.145671l111.284549 0 0 111.284549-111.284549 0 0-111.284549Z" p-id="4814"></path><path d="M402.725736 457.145671l111.284549 0 0 111.284549-111.284549 0 0-111.284549Z" p-id="4815"></path><path d="M235.798912 679.714769l111.284549 0 0 111.284549-111.284549 0 0-111.284549Z" p-id="4816"></path><path d="M402.725736 679.714769l111.284549 0 0 111.284549-111.284549 0 0-111.284549Z" p-id="4817"></path><path d="M680.937109 679.714769l111.284549 0 0 111.284549-111.284549 0 0-111.284549Z" p-id="4818"></path><path d="M929.316036 900.680347l-25.810852 0 0-526.971993c0-22.306029-8.694009-43.279712-24.506137-59.010999-15.757892-15.757892-36.679387-24.452925-58.956763-24.452925L625.294834 290.24443 625.294834 151.140279c0-22.306029-8.694009-43.279712-24.506137-59.010999-15.757892-15.757892-36.679387-24.452925-58.956763-24.452925l-333.853647 0c-22.278399 0-43.25413 8.694009-58.956763 24.425296-15.812127 15.730263-24.506137 36.70497-24.506137 59.037605l0 749.541091-29.831422 0c-15.377222 0-27.821649 12.443403-27.821649 27.821649s12.443403 27.821649 27.821649 27.821649l834.634118 0c15.377222 0 27.821649-12.443403 27.821649-27.821649S944.694281 900.680347 929.316036 900.680347zM820.042283 345.887728c7.443529 0 14.398942 2.907213 19.669992 8.178263 5.27105 5.243421 8.151657 12.225439 8.151657 19.642362l0 526.971993L625.294834 900.680347 625.294834 345.887728 820.042283 345.887728zM180.156638 151.140279c0-7.443529 2.879584-14.426571 8.150634-19.669992 5.27105-5.244444 12.226462-8.151657 19.671015-8.151657l333.853647 0c7.443529 0 14.398942 2.907213 19.669992 8.178263 5.27105 5.243421 8.151657 12.225439 8.151657 19.642362l0 139.106198 0 610.434893L180.156638 900.680347 180.156638 151.140279z" p-id="4819"></path></svg>