<?xml version="1.0" standalone="no"?><!DOCTYPE svg PUBLIC "-//W3C//DTD SVG 1.1//EN" "http://www.w3.org/Graphics/SVG/1.1/DTD/svg11.dtd"><svg t="1531299921966" class="icon" style="" viewBox="0 0 1024 1024" version="1.1" xmlns="http://www.w3.org/2000/svg" p-id="1363" xmlns:xlink="http://www.w3.org/1999/xlink" width="200" height="200"><defs><style type="text/css"></style></defs><path d="M226.15841 0h566.396017C912.793582 2.079985 1018.552838 105.919255 1023.9928 225.838412v561.196054c1.279991 125.919115-110.559223 237.998327-236.478337 236.958334H232.078368C110.319224 1022.392811 3.039979 915.91356 0 794.234416V228.878391C3.599975 109.51923 107.039247 5.359962 226.15841 0m483.276602 190.478661c-41.119711 16.159886-62.079564 69.359512-40.959712 108.719235 22.959839 44.799685 47.839664 88.799376 70.719503 133.75906-51.679637 7.039951-107.679243 10.959923-151.038938 43.199696-24.879825 17.359878-30.879783 53.599623-14.2399 78.719447 22.879839 42.479701 80.959431 45.599679 104.799263 87.439385 13.919902 20.639855 3.679974 47.599665-13.679904 62.55956-29.83979 26.159816-70.159507 35.679749-108.479237 41.439708-62.63956 6.959951-126.159113 9.199935-188.798673 1.359991 19.519863-37.679735 39.999719-74.879474 59.919579-112.39921 16.879881-31.519778 39.119725-62.239562 40.639714-99.359301 6.799952-65.919537-36.879741-131.679074-99.439301-152.398929-64.719545-23.759833-143.358992 3.679974-178.318746 63.199556-26.159816 42.399702-29.119795 98.639306-5.59996 142.878995 44.719686 82.55942 88.959375 165.358837 132.23907 248.798251 103.679271 3.919972 209.11853-1.35999 309.597823-29.199795 47.599665-14.559898 98.239309-35.759749 126.159113-79.439441 29.519792-44.479687 8.079943-108.07924-34.639757-135.839045-33.119767-20.559855-71.519497-33.679763-99.5193-61.839565-16.479884-13.999902-5.599961-38.319731 7.919944-50.239647 31.839776-29.119795 75.919466-37.519736 116.399182-47.999662 23.679834-44.399688 47.759664-88.479378 71.279499-132.959066 12.319913-22.639841 11.919916-51.359639-0.399997-73.999479-18.639869-36.799741-67.039529-53.199626-104.559265-36.399744z" fill="#63C6E6" p-id="1364"></path><path d="M723.194915 234.238353c24.959825-17.03988 61.999564 8.399941 55.039613 37.839734-3.599975 25.439821-36.879741 39.279724-57.279597 23.439835-21.679848-13.679904-20.319857-49.119655 2.239984-61.279569zM298.877899 460.636761c48.479659-17.919874 102.239281 33.519764 85.599398 82.799418-11.199921 47.439666-77.119458 65.43954-111.359217 31.199781-37.999733-32.239773-22.559841-101.279288 25.759819-113.999199z" fill="#63C6E6" p-id="1365"></path><path d="M709.435012 190.478661c37.519736-16.799882 85.919396-0.399997 104.559265 36.399744 12.319913 22.639841 12.719911 51.359639 0.399997 73.999479-23.519835 44.479687-47.599665 88.559377-71.279499 132.959066-40.479715 10.479926-84.559405 18.879867-116.399182 47.999662-13.519905 11.919916-24.399828 36.239745-7.919944 50.239647 27.999803 28.159802 66.399533 41.27971 99.5193 61.839565 42.7197 27.759805 64.159549 91.359358 34.639757 135.839045-27.919804 43.679693-78.559448 64.879544-126.159113 79.439441-100.479294 27.839804-205.918552 33.119767-309.597823 29.199795-43.279696-83.439413-87.519385-166.238831-132.23907-248.798251-23.519835-44.239689-20.559855-100.479294 5.59996-142.878995 34.959754-59.519582 113.599201-86.959389 178.318746-63.199556 62.55956 20.719854 106.239253 86.479392 99.439301 152.398929-1.519989 37.119739-23.759833 67.839523-40.639714 99.359301-19.91986 37.519736-40.399716 74.719475-59.919579 112.39921 62.63956 7.839945 126.159113 5.599961 188.798673-1.359991 38.319731-5.75996 78.639447-15.279893 108.479237-41.439708 17.359878-14.959895 27.599806-41.919705 13.679904-62.55956-23.839832-41.839706-81.919424-44.959684-104.799263-87.439385-16.639883-25.119823-10.639925-61.359569 14.2399-78.719447 43.359695-32.239773 99.359301-36.159746 151.038938-43.199696C716.314963 387.997272 691.435138 343.997581 668.4753 299.197896c-21.119852-39.359723-0.159999-92.559349 40.959712-108.719235m13.759903 43.759692c-22.559841 12.159915-23.919832 47.599665-2.239984 61.279569 20.399857 15.839889 53.679623 1.999986 57.279597-23.439835 6.959951-29.439793-30.079789-54.879614-55.039613-37.839734m-424.317016 226.398408c-48.31966 12.719911-63.759552 81.759425-25.759819 113.999199 34.239759 34.239759 100.159296 16.239886 111.359217-31.199781 16.639883-49.279654-37.119739-100.719292-85.599398-82.799418z" fill="#FFFFFF" p-id="1366"></path></svg>